<?xml version="1.0" standalone="no"?>
<!DOCTYPE svg PUBLIC "-//W3C//DTD SVG 20010904//EN"
 "http://www.w3.org/TR/2001/REC-SVG-20010904/DTD/svg10.dtd">
<svg version="1.0" xmlns="http://www.w3.org/2000/svg"
 width="1280.000000pt" height="1280.000000pt" viewBox="0 0 1280.000000 1280.000000"
 preserveAspectRatio="xMidYMid meet">

<g transform="translate(0.000000,1280.000000) scale(0.100000,-0.100000)"
fill="#4285F4" stroke="none">
<path d="M6133 12623 c9 -2 25 -2 35 0 9 3 1 5 -18 5 -19 0 -27 -2 -17 -5z"/>
<path d="M5998 12613 c7 -3 16 -2 19 1 4 3 -2 6 -13 5 -11 0 -14 -3 -6 -6z"/>
<path d="M5833 12603 c9 -2 23 -2 30 0 6 3 -1 5 -18 5 -16 0 -22 -2 -12 -5z"/>
<path d="M5738 12593 c6 -2 18 -2 25 0 6 3 1 5 -13 5 -14 0 -19 -2 -12 -5z"/>
<path d="M5643 12583 c9 -2 23 -2 30 0 6 3 -1 5 -18 5 -16 0 -22 -2 -12 -5z"/>
<path d="M5563 12573 c9 -2 25 -2 35 0 9 3 1 5 -18 5 -19 0 -27 -2 -17 -5z"/>
<path d="M5488 12563 c6 -2 18 -2 25 0 6 3 1 5 -13 5 -14 0 -19 -2 -12 -5z"/>
<path d="M5423 12553 c9 -2 25 -2 35 0 9 3 1 5 -18 5 -19 0 -27 -2 -17 -5z"/>
<path d="M5368 12543 c6 -2 18 -2 25 0 6 3 1 5 -13 5 -14 0 -19 -2 -12 -5z"/>
<path d="M5303 12533 c9 -2 23 -2 30 0 6 3 -1 5 -18 5 -16 0 -22 -2 -12 -5z"/>
<path d="M5248 12523 c6 -2 18 -2 25 0 6 3 1 5 -13 5 -14 0 -19 -2 -12 -5z"/>
<path d="M5198 12513 c6 -2 18 -2 25 0 6 3 1 5 -13 5 -14 0 -19 -2 -12 -5z"/>
<path d="M5148 12503 c6 -2 18 -2 25 0 6 3 1 5 -13 5 -14 0 -19 -2 -12 -5z"/>
<path d="M5098 12493 c6 -2 18 -2 25 0 6 3 1 5 -13 5 -14 0 -19 -2 -12 -5z"/>
<path d="M5058 12483 c7 -3 16 -2 19 1 4 3 -2 6 -13 5 -11 0 -14 -3 -6 -6z"/>
<path d="M5008 12473 c6 -2 18 -2 25 0 6 3 1 5 -13 5 -14 0 -19 -2 -12 -5z"/>
<path d="M4968 12463 c7 -3 16 -2 19 1 4 3 -2 6 -13 5 -11 0 -14 -3 -6 -6z"/>
<path d="M4895 12450 c-25 -11 1 -11 35 0 20 6 21 8 5 8 -11 0 -29 -3 -40 -8z"/>
<path d="M4815 12430 c-25 -11 1 -11 35 0 20 6 21 8 5 8 -11 0 -29 -3 -40 -8z"/>
<path d="M4692 12398 c-40 -11 -71 -22 -69 -25 4 -4 158 36 166 43 9 8 -27 2
-97 -18z"/>
<path d="M4400 12306 c-330 -112 -723 -286 -1015 -448 -989 -549 -1797 -1339
-2375 -2323 -111 -190 -314 -604 -393 -805 -67 -169 -177 -484 -176 -504 0 -6
28 70 63 169 78 226 186 496 196 490 3 -2 85 74 180 170 96 96 174 175 175
175 0 0 -36 -75 -82 -167 -45 -93 -83 -172 -82 -178 0 -5 44 78 98 185 152
302 294 541 475 800 501 712 1197 1347 1933 1765 58 32 100 62 96 68 -3 6 -1
7 5 3 7 -4 67 22 134 57 68 36 180 91 250 123 70 32 126 59 124 61 -4 4 -71
-26 -230 -101 -65 -31 -121 -54 -124 -52 -2 3 68 76 156 162 89 86 159 160
157 164 -6 10 184 87 425 171 107 37 188 68 180 68 -8 0 -85 -24 -170 -53z
m-460 -196 c-8 -5 -19 -10 -25 -10 -5 0 -3 5 5 10 8 5 20 10 25 10 6 0 3 -5
-5 -10z m-90 -40 c-8 -5 -19 -10 -25 -10 -5 0 -3 5 5 10 8 5 20 10 25 10 6 0
3 -5 -5 -10z m-45 -20 c-3 -5 -12 -10 -18 -10 -7 0 -6 4 3 10 19 12 23 12 15
0z m-75 -34 c0 -2 -7 -7 -16 -10 -8 -3 -12 -2 -9 4 6 10 25 14 25 6z m-40 -20
c0 -2 -7 -7 -16 -10 -8 -3 -12 -2 -9 4 6 10 25 14 25 6z m-40 -210 c0 -2 -7
-7 -16 -10 -8 -3 -12 -2 -9 4 6 10 25 14 25 6z m-2827 -2641 c-9 -19 -18 -33
-21 -31 -4 5 26 66 33 66 3 0 -3 -16 -12 -35z m-112 -238 c-10 -9 -11 -8 -5 6
3 10 9 15 12 12 3 -3 0 -11 -7 -18z"/>
<path d="M5993 12203 c9 -2 23 -2 30 0 6 3 -1 5 -18 5 -16 0 -22 -2 -12 -5z"/>
<path d="M5888 12193 c7 -3 16 -2 19 1 4 3 -2 6 -13 5 -11 0 -14 -3 -6 -6z"/>
<path d="M5768 12183 c6 -2 18 -2 25 0 6 3 1 5 -13 5 -14 0 -19 -2 -12 -5z"/>
<path d="M5683 12173 c9 -2 25 -2 35 0 9 3 1 5 -18 5 -19 0 -27 -2 -17 -5z"/>
<path d="M5608 12163 c7 -3 16 -2 19 1 4 3 -2 6 -13 5 -11 0 -14 -3 -6 -6z"/>
<path d="M5538 12153 c6 -2 18 -2 25 0 6 3 1 5 -13 5 -14 0 -19 -2 -12 -5z"/>
<path d="M5468 12143 c6 -2 18 -2 25 0 6 3 1 5 -13 5 -14 0 -19 -2 -12 -5z"/>
<path d="M5413 12133 c9 -2 23 -2 30 0 6 3 -1 5 -18 5 -16 0 -22 -2 -12 -5z"/>
<path d="M5358 12123 c7 -3 16 -2 19 1 4 3 -2 6 -13 5 -11 0 -14 -3 -6 -6z"/>
<path d="M5303 12113 c9 -2 23 -2 30 0 6 3 -1 5 -18 5 -16 0 -22 -2 -12 -5z"/>
<path d="M5195 12095 c-27 -7 -41 -13 -30 -13 11 0 43 6 70 13 28 7 41 13 30
13 -11 0 -42 -6 -70 -13z"/>
<path d="M6263 12083 c9 -2 23 -2 30 0 6 3 -1 5 -18 5 -16 0 -22 -2 -12 -5z"/>
<path d="M4990 12049 c-1074 -277 -2006 -816 -2763 -1599 -595 -616 -1048
-1355 -1325 -2160 -84 -246 -189 -642 -205 -780 -4 -33 -2 -28 9 20 74 314
107 439 114 435 4 -3 23 14 43 38 19 23 53 60 74 82 22 22 44 51 48 64 4 12 9
21 11 18 2 -2 -3 -24 -11 -48 -51 -144 -172 -644 -162 -671 2 -7 7 7 12 32 13
79 74 341 106 455 70 247 220 658 296 809 13 26 22 55 18 64 -3 9 -3 13 1 9 4
-4 45 65 90 152 443 857 1050 1553 1829 2098 128 89 400 260 483 302 24 12 40
26 37 31 -3 5 0 12 6 16 8 4 9 3 5 -4 -4 -7 -5 -12 -3 -12 2 0 100 47 218 104
316 154 691 297 972 371 37 10 65 20 63 22 -16 16 -559 -164 -764 -254 -7 -3
2 10 20 29 79 82 138 149 138 157 0 19 396 148 660 215 74 19 126 34 115 34
-11 0 -72 -13 -135 -29z m-690 -239 c-8 -5 -19 -10 -25 -10 -5 0 -3 5 5 10 8
5 20 10 25 10 6 0 3 -5 -5 -10z m-50 -20 c-8 -5 -19 -10 -25 -10 -5 0 -3 5 5
10 8 5 20 10 25 10 6 0 3 -5 -5 -10z m-50 -20 c-8 -5 -19 -10 -25 -10 -5 0 -3
5 5 10 8 5 20 10 25 10 6 0 3 -5 -5 -10z m-30 -134 c0 -2 -7 -7 -16 -10 -8 -3
-12 -2 -9 4 6 10 25 14 25 6z m-55 -26 c-3 -5 -12 -10 -18 -10 -7 0 -6 4 3 10
19 12 23 12 15 0z m-35 -14 c0 -2 -7 -7 -16 -10 -8 -3 -12 -2 -9 4 6 10 25 14
25 6z m-50 -26 c-8 -5 -19 -10 -25 -10 -5 0 -3 5 5 10 8 5 20 10 25 10 6 0 3
-5 -5 -10z m-2959 -3197 c-12 -20 -14 -14 -5 12 4 9 9 14 11 11 3 -2 0 -13 -6
-23z m-20 -50 c-12 -20 -14 -14 -5 12 4 9 9 14 11 11 3 -2 0 -13 -6 -23z m-20
-60 c-12 -20 -14 -14 -5 12 4 9 9 14 11 11 3 -2 0 -13 -6 -23z m-20 -60 c-12
-20 -14 -14 -5 12 4 9 9 14 11 11 3 -2 0 -13 -6 -23z m-180 -200 c-12 -20 -14
-14 -5 12 4 9 9 14 11 11 3 -2 0 -13 -6 -23z"/>
<path d="M6078 12073 c12 -2 30 -2 40 0 9 3 -1 5 -23 4 -22 0 -30 -2 -17 -4z"/>
<path d="M4280 12060 c-8 -5 -10 -10 -5 -10 6 0 17 5 25 10 8 5 11 10 5 10 -5
0 -17 -5 -25 -10z"/>
<path d="M5908 12063 c12 -2 32 -2 45 0 12 2 2 4 -23 4 -25 0 -35 -2 -22 -4z"/>
<path d="M5823 12053 c9 -2 23 -2 30 0 6 3 -1 5 -18 5 -16 0 -22 -2 -12 -5z"/>
<path d="M4200 12033 c-19 -8 -68 -28 -108 -45 -40 -17 -72 -32 -70 -34 2 -2
58 19 123 46 66 27 113 49 105 49 -8 0 -31 -7 -50 -16z"/>
<path d="M5718 12043 c12 -2 30 -2 40 0 9 3 -1 5 -23 4 -22 0 -30 -2 -17 -4z"/>
<path d="M5653 12033 c9 -2 23 -2 30 0 6 3 -1 5 -18 5 -16 0 -22 -2 -12 -5z"/>
<path d="M5573 12023 c9 -2 23 -2 30 0 6 3 -1 5 -18 5 -16 0 -22 -2 -12 -5z"/>
<path d="M5508 12013 c6 -2 18 -2 25 0 6 3 1 5 -13 5 -14 0 -19 -2 -12 -5z"/>
<path d="M5443 12003 c9 -2 23 -2 30 0 6 3 -1 5 -18 5 -16 0 -22 -2 -12 -5z"/>
<path d="M5388 11993 c6 -2 18 -2 25 0 6 3 1 5 -13 5 -14 0 -19 -2 -12 -5z"/>
<path d="M5333 11983 c9 -2 23 -2 30 0 6 3 -1 5 -18 5 -16 0 -22 -2 -12 -5z"/>
<path d="M5288 11973 c7 -3 16 -2 19 1 4 3 -2 6 -13 5 -11 0 -14 -3 -6 -6z"/>
<path d="M5200 11960 c-20 -6 -21 -8 -5 -8 11 0 31 4 45 8 20 6 21 8 5 8 -11
0 -31 -4 -45 -8z"/>
<path d="M5110 11940 c-20 -6 -21 -8 -5 -8 11 0 31 4 45 8 20 6 21 8 5 8 -11
0 -31 -4 -45 -8z"/>
<path d="M5025 11920 c-25 -11 1 -11 35 0 20 6 21 8 5 8 -11 0 -29 -3 -40 -8z"/>
<path d="M4978 11903 c7 -3 16 -2 19 1 4 3 -2 6 -13 5 -11 0 -14 -3 -6 -6z"/>
<path d="M6180 11894 c-1683 -78 -3179 -867 -4187 -2209 -610 -812 -968 -1746
-1069 -2790 -20 -209 -23 -727 -5 -930 95 -1081 457 -2033 1093 -2877 280
-372 652 -748 1029 -1039 1137 -880 2553 -1273 3994 -1109 1473 168 2790 913
3721 2106 101 129 328 467 410 609 397 692 631 1431 710 2250 20 208 23 725 5
930 -67 761 -266 1459 -598 2095 -819 1570 -2343 2658 -4078 2909 -291 43
-757 67 -1025 55z m566 -27 c3 -3 3 -53 -1 -111 l-7 -105 -247 6 c-135 3 -247
6 -247 7 -1 0 -5 50 -8 110 l-8 109 257 -5 c140 -3 258 -8 261 -11z m-586
-106 l0 -108 -107 -7 c-60 -4 -168 -13 -242 -22 -73 -8 -136 -13 -139 -10 -5
6 -31 167 -32 197 0 14 18 19 98 29 154 18 261 27 345 29 l77 1 0 -109z m850
83 c160 -16 297 -37 306 -46 2 -3 -3 -51 -13 -107 -13 -78 -21 -101 -33 -101
-8 0 -79 9 -157 20 -77 11 -186 23 -242 26 l-101 7 0 37 c0 20 3 71 6 112 l7
76 36 -4 c20 -2 106 -11 191 -20z m-1391 -106 c7 -46 14 -95 17 -109 l5 -25
-133 -22 c-73 -12 -184 -34 -246 -48 -63 -14 -119 -23 -126 -21 -14 6 -63 193
-54 203 13 12 441 100 504 103 20 1 23 -7 33 -81z m1893 27 c120 -24 359 -82
365 -89 2 -2 -9 -49 -24 -104 -31 -112 -29 -111 -105 -87 -46 14 -264 63 -379
85 l-57 11 8 37 c5 20 13 69 20 108 9 59 14 71 28 68 9 -2 74 -15 144 -29z
m-2441 -157 c13 -57 23 -105 22 -108 -1 -2 -61 -21 -134 -42 -73 -20 -181 -54
-241 -74 -61 -20 -113 -32 -118 -28 -16 18 -72 186 -64 194 15 13 461 155 500
159 6 1 21 -45 35 -101z m2994 11 c121 -38 345 -118 354 -126 3 -2 -66 -190
-74 -201 -1 -1 -43 13 -93 32 -49 19 -155 55 -233 80 -79 26 -149 48 -156 51
-9 3 -9 15 2 52 7 26 20 74 29 105 10 36 21 56 29 53 6 -2 71 -23 142 -46z
m-1150 -3 c1256 -134 2361 -667 3235 -1562 707 -724 1188 -1631 1385 -2609 75
-375 99 -630 100 -1050 0 -334 -7 -441 -46 -725 -133 -962 -540 -1872 -1184
-2645 -130 -156 -477 -503 -634 -634 -847 -705 -1792 -1098 -2911 -1213 -165
-17 -745 -17 -915 0 -1106 109 -2073 511 -2915 1212 -157 131 -505 478 -633
632 -708 847 -1110 1812 -1219 2923 -17 172 -17 751 0 915 71 698 238 1284
536 1880 258 517 561 935 986 1361 212 213 362 344 585 510 799 595 1755 947
2765 1019 175 12 697 4 865 -14z m-2380 -177 c20 -55 35 -102 33 -104 -1 -1
-61 -26 -133 -55 -71 -29 -177 -75 -234 -101 -57 -27 -105 -48 -106 -47 -5 6
-95 188 -95 192 0 8 451 204 496 216 1 0 18 -45 39 -101z m4056 -18 c119 -52
317 -147 328 -157 3 -3 -82 -175 -94 -192 -2 -2 -52 21 -111 51 -99 49 -163
79 -298 137 l-45 19 41 100 c22 56 41 101 43 101 1 0 62 -26 136 -59z m-4576
-201 c25 -49 45 -94 45 -100 0 -5 -36 -28 -79 -50 -44 -22 -139 -73 -211 -115
-72 -41 -133 -75 -135 -75 -10 0 -115 172 -110 180 9 14 423 248 442 250 2 0
23 -40 48 -90z m5054 -37 c84 -47 195 -113 293 -175 l77 -50 -60 -89 c-33 -49
-61 -89 -64 -89 -2 0 -48 28 -102 63 -54 35 -148 92 -210 127 l-111 64 25 50
c36 73 74 136 80 136 4 0 36 -16 72 -37z m-5559 -257 c28 -47 51 -88 49 -93
-2 -4 -47 -37 -99 -72 -52 -35 -139 -97 -193 -137 -54 -41 -102 -74 -105 -74
-6 1 -106 126 -125 156 -5 8 24 36 89 85 129 97 306 218 320 219 6 0 35 -38
64 -84z m6167 -139 c98 -74 186 -144 197 -155 19 -21 18 -22 -38 -91 -31 -38
-62 -74 -69 -79 -9 -8 -44 15 -127 79 -63 49 -157 119 -207 155 l-92 66 60 89
c52 75 64 87 79 79 10 -5 98 -70 197 -143z m-6603 -178 l64 -82 -102 -85 c-55
-47 -143 -124 -194 -170 l-93 -85 -75 74 c-41 40 -74 76 -74 80 0 16 384 349
402 349 4 0 36 -37 72 -81z m6949 -101 c50 -46 138 -127 195 -182 l102 -99
-22 -25 c-13 -13 -49 -47 -81 -74 l-58 -51 -107 104 c-59 58 -144 137 -189
176 l-82 72 67 80 c36 45 70 81 74 81 5 0 50 -37 101 -82z m-7341 -301 l41
-49 -100 -101 c-55 -56 -134 -141 -176 -189 l-76 -86 -78 64 c-43 36 -79 69
-81 74 -4 11 134 168 267 302 l95 98 34 -33 c19 -17 52 -54 74 -80z m7771
-124 c128 -143 237 -274 237 -285 0 -4 -37 -36 -81 -72 l-82 -64 -80 97 c-45
53 -121 140 -171 194 l-90 98 74 74 c41 41 77 75 81 75 4 0 54 -53 112 -117z
m-8114 -317 c6 -8 -19 -47 -80 -126 -49 -63 -119 -156 -155 -207 l-65 -92 -82
56 c-45 31 -85 59 -89 62 -9 7 112 180 236 338 l79 102 73 -61 c40 -33 78 -65
83 -72z m8449 -88 c92 -123 222 -314 222 -325 0 -5 -40 -35 -89 -65 l-89 -56
-62 95 c-34 52 -98 142 -141 200 -44 58 -79 108 -78 112 0 5 158 131 165 131
1 0 34 -42 72 -92z m-8768 -364 c0 -3 -13 -24 -29 -47 -36 -52 -157 -254 -196
-324 l-28 -53 -77 41 c-127 66 -122 52 -61 160 29 52 89 151 133 221 l79 128
90 -60 c49 -33 89 -63 89 -66z m9104 -140 c32 -54 88 -154 123 -221 l64 -122
-90 -46 c-50 -25 -95 -45 -101 -45 -5 0 -30 39 -54 88 -24 48 -76 142 -115
210 -39 67 -71 124 -71 127 0 9 165 114 175 111 6 -1 37 -47 69 -102z m-9488
-301 c49 -25 90 -47 92 -49 2 -1 -21 -51 -52 -111 -30 -60 -75 -159 -101 -218
-26 -60 -48 -112 -51 -116 -3 -6 -189 63 -201 74 -9 9 204 467 218 467 4 0 47
-21 95 -47z m9742 -185 c65 -144 104 -236 135 -320 l25 -66 -100 -36 c-56 -20
-102 -35 -104 -33 -1 1 -27 63 -57 137 -30 74 -75 180 -101 234 -25 55 -45
100 -44 101 6 6 184 94 189 94 3 1 29 -50 57 -111z m-9966 -305 c51 -20 94
-37 96 -38 1 -1 -13 -43 -32 -93 -19 -49 -55 -155 -80 -233 -26 -79 -48 -149
-51 -156 -3 -8 -30 -4 -97 14 -51 14 -98 28 -105 32 -16 8 151 511 169 511 4
0 50 -16 100 -37z m10175 -218 c38 -112 125 -407 121 -410 -11 -8 -209 -51
-212 -46 -2 3 -16 51 -31 106 -14 55 -47 162 -72 238 -24 76 -42 142 -38 145
11 12 169 70 184 69 9 -1 28 -42 48 -102z m-10344 -316 c48 -13 87 -28 87 -35
0 -7 -11 -54 -25 -106 -19 -70 -85 -377 -85 -393 0 -2 -17 1 -37 5 -21 5 -70
13 -109 20 l-71 11 19 97 c10 53 36 173 59 265 34 140 44 168 58 164 9 -2 55
-15 104 -28z m10500 -236 c24 -102 77 -384 77 -409 0 -7 -32 -16 -82 -23 -46
-7 -95 -14 -109 -17 -25 -5 -27 -2 -33 43 -11 76 -65 353 -80 410 l-14 53 36
10 c21 5 60 16 87 24 93 27 90 30 118 -91z m-10609 -314 l78 -12 -5 -46 c-4
-25 -13 -98 -22 -161 -8 -63 -18 -159 -22 -214 l-6 -99 -111 7 c-61 4 -111 8
-112 9 -6 9 50 490 62 526 3 9 14 12 32 8 15 -3 62 -11 106 -18z m10700 -191
c16 -128 36 -348 36 -405 l0 -63 -109 0 -108 0 -7 113 c-4 61 -14 170 -22 240
-9 71 -13 132 -10 135 7 6 143 29 187 31 24 1 27 -3 33 -51z m-10687 -372 c1
-1 0 -113 -4 -249 l-6 -247 -47 0 c-26 0 -75 -3 -109 -6 l-61 -7 0 170 c0 93
3 212 7 263 l6 93 106 -8 c58 -3 107 -8 108 -9z m10733 -334 c0 -93 -3 -211
-7 -262 l-6 -93 -106 8 c-58 3 -107 8 -108 9 -1 1 0 113 4 249 l6 246 56 4
c31 2 80 4 109 5 l52 2 0 -168z m-10726 -349 c4 -60 13 -168 22 -242 8 -73 13
-135 10 -138 -6 -7 -206 -37 -211 -32 -7 8 -35 271 -41 397 l-7 122 110 0 110
0 7 -107z m10638 -29 l76 -7 -4 -36 c-33 -328 -54 -484 -66 -496 -3 -3 -51 3
-108 12 l-102 18 5 45 c4 25 13 97 22 160 8 63 18 159 22 213 l6 97 37 0 c20
0 71 -3 112 -6z m-10588 -431 c11 -76 65 -353 80 -410 l14 -52 -32 -10 c-39
-13 -157 -41 -173 -41 -6 0 -23 48 -38 113 -32 135 -79 406 -73 413 4 4 157
28 204 33 7 1 15 -20 18 -46z m10522 -132 l71 -12 -14 -77 c-8 -42 -35 -162
-60 -265 -38 -158 -48 -188 -62 -184 -9 3 -55 15 -103 28 -49 13 -88 29 -88
36 0 6 11 53 25 105 19 70 85 377 85 393 0 2 17 -1 38 -5 20 -4 69 -13 108
-19z m-10381 -511 c20 -74 54 -183 75 -242 l37 -107 -99 -36 c-55 -21 -104
-33 -108 -28 -16 17 -166 502 -157 508 11 9 203 51 208 46 4 -3 24 -67 44
-141z m10257 -41 l66 -19 -25 -83 c-37 -122 -140 -408 -151 -419 -5 -5 -46 6
-103 28 -52 20 -95 38 -97 39 -2 2 15 49 36 106 22 57 58 163 81 234 23 72 43
135 46 142 4 12 15 10 147 -28z m-10097 -436 c21 -54 66 -161 101 -237 35 -77
63 -141 61 -142 -10 -8 -190 -94 -192 -92 -12 12 -147 320 -188 430 l-26 66
92 35 c51 19 97 35 103 36 7 1 29 -43 49 -96z m9972 -126 c6 -7 -194 -445
-213 -466 -2 -3 -179 84 -192 94 -2 2 21 52 51 111 49 99 79 163 137 298 l19
45 97 -39 c54 -22 99 -42 101 -43z m-9747 -366 c22 -44 73 -139 115 -211 41
-72 75 -133 75 -135 0 -3 -39 -30 -86 -61 -71 -45 -89 -53 -100 -42 -16 17
-154 258 -204 358 l-40 80 87 44 c49 25 94 45 100 45 7 1 31 -35 53 -78z
m9476 -165 c17 -13 15 -19 -36 -107 -29 -52 -89 -151 -132 -221 l-80 -127 -89
60 c-49 33 -89 61 -89 64 0 2 28 48 63 102 35 54 92 148 127 210 l64 112 77
-40 c42 -22 85 -46 95 -53z m-9170 -351 c37 -55 100 -144 141 -198 40 -54 73
-102 73 -105 -1 -6 -126 -106 -156 -125 -8 -5 -35 23 -82 85 -106 143 -224
317 -220 328 3 8 170 120 175 116 1 -1 32 -46 69 -101z m8897 -139 c-39 -63
-272 -373 -302 -400 -20 -18 -22 -18 -90 38 -38 31 -74 62 -80 69 -7 9 9 37
61 102 39 50 109 143 155 207 l85 117 89 -61 c52 -36 86 -66 82 -72z m-8573
-291 c46 -55 122 -142 168 -193 l86 -93 -78 -77 -77 -77 -60 65 c-94 101 -289
332 -289 342 0 7 162 140 165 135 1 -1 39 -47 85 -102z m8158 -89 c40 -33 72
-63 72 -67 0 -10 -144 -172 -259 -292 l-104 -108 -25 23 c-13 13 -47 49 -74
81 l-50 57 118 123 c66 68 144 153 174 189 30 36 60 63 66 59 6 -3 43 -33 82
-65z m-7769 -328 c58 -57 143 -135 188 -175 l82 -72 -65 -78 c-35 -43 -68 -79
-73 -81 -11 -4 -159 126 -295 258 l-108 105 77 73 c42 39 79 72 82 72 3 0 54
-46 112 -102z m7381 -83 l75 -76 -89 -82 c-103 -95 -308 -267 -318 -267 -11 0
-131 157 -127 166 2 5 56 52 119 106 63 53 147 126 185 162 39 36 72 65 75 66
3 0 39 -34 80 -75z m-6990 -260 c42 -34 131 -101 198 -149 l122 -88 -61 -87
c-33 -47 -65 -85 -70 -84 -21 6 -309 220 -384 286 -37 32 -39 36 -24 53 95
115 122 143 132 137 6 -4 45 -34 87 -68z m6560 -97 c30 -39 58 -77 62 -84 5
-8 -24 -36 -85 -81 -126 -94 -313 -223 -324 -223 -5 0 -35 40 -65 89 l-56 89
107 71 c58 39 147 102 196 140 50 38 95 70 100 70 6 0 35 -32 65 -71z m-6167
-187 c52 -36 254 -157 324 -196 l53 -28 -41 -77 c-66 -127 -52 -122 -160 -60
-52 29 -151 88 -221 132 l-128 79 60 90 c33 49 63 89 66 89 3 0 24 -13 47 -29z
m5693 -156 c30 -47 52 -90 49 -95 -7 -11 -183 -113 -327 -189 l-117 -62 -46
90 c-25 50 -45 95 -45 101 0 5 44 32 98 59 53 27 147 79 207 115 61 35 113 65
118 65 4 1 32 -37 63 -84z m-5138 -159 c97 -48 161 -78 296 -136 l45 -19 -39
-97 c-22 -54 -42 -99 -43 -101 -7 -6 -445 193 -466 213 -4 4 91 194 97 194 1
0 51 -24 110 -54z m4665 -102 c27 -53 47 -97 45 -99 -16 -14 -320 -147 -429
-188 l-67 -25 -37 100 c-20 55 -35 101 -33 103 2 2 64 28 138 58 74 30 178 75
230 100 52 25 97 46 100 46 3 1 27 -42 53 -95z m-4191 -103 c57 -21 162 -57
233 -80 72 -23 135 -43 142 -46 8 -3 4 -30 -14 -97 -14 -51 -28 -98 -32 -105
-4 -8 -58 6 -181 46 -152 50 -316 109 -329 118 -4 3 71 203 76 203 2 0 49 -18
105 -39z m3676 -119 c19 -52 30 -97 26 -102 -18 -16 -503 -166 -509 -157 -1 1
-13 48 -28 105 -18 73 -22 105 -14 107 7 3 82 25 167 49 85 25 187 56 225 70
39 13 76 24 84 23 8 -1 29 -42 49 -95z m-3186 -37 c46 -14 264 -63 379 -85
l55 -11 -18 -102 c-10 -56 -19 -105 -21 -108 -3 -8 -195 31 -380 77 -122 30
-148 40 -144 53 3 9 15 55 28 104 26 96 26 95 101 72z m2650 -132 c12 -51 19
-95 16 -98 -12 -12 -470 -105 -517 -105 -5 0 -14 37 -20 83 -7 45 -14 94 -17
108 -5 26 -3 27 48 34 61 8 379 70 423 83 38 11 39 9 67 -105z m-2015 7 c77
-11 187 -23 243 -26 l103 -7 -7 -111 c-4 -61 -8 -111 -9 -112 -12 -8 -517 54
-530 66 -4 4 0 53 10 108 13 79 21 102 33 102 8 0 79 -9 157 -20z m1447 -17
c8 -29 29 -194 25 -198 -7 -6 -294 -36 -406 -42 l-113 -6 0 110 0 110 118 8
c64 4 164 13 222 20 146 17 148 17 154 -2z m-578 -37 c1 -1 5 -50 9 -110 l7
-109 -256 5 c-141 3 -259 8 -262 11 -3 3 -3 53 1 111 l7 106 247 -7 c135 -3
247 -6 247 -7z"/>
<path d="M6360 11480 c-80 -4 -173 -8 -207 -9 -62 -1 -92 -21 -33 -21 17 0 30
-3 30 -8 0 -13 -89 -424 -93 -428 -3 -4 -67 399 -67 424 0 7 13 12 30 12 17 0
30 4 30 9 0 11 -319 2 -340 -10 -10 -5 6 -9 43 -9 31 0 57 -4 57 -9 0 -5 32
-213 71 -462 l71 -454 -54 -252 -53 -253 -57 0 c-37 0 -58 -4 -58 -11 0 -9 22
-10 77 -5 42 3 91 6 110 6 18 0 33 4 33 9 0 5 -20 6 -46 3 -43 -5 -45 -4 -39
19 3 13 25 114 49 224 29 135 46 192 50 175 3 -14 17 -101 31 -195 14 -93 27
-180 30 -192 4 -18 1 -23 -15 -23 -11 0 -20 -5 -20 -11 0 -7 31 -9 98 -5 53 3
171 8 262 11 242 8 380 17 380 25 0 3 -13 5 -30 2 -19 -3 -31 0 -34 9 -3 8
-10 160 -16 339 -16 474 -29 808 -36 953 l-6 127 30 0 c17 0 34 5 37 10 7 11
-79 11 -315 0z m74 -117 c4 -60 15 -360 26 -668 11 -308 21 -581 23 -607 2
-42 0 -48 -22 -53 -13 -3 -25 -4 -27 -2 -4 4 -54 1263 -54 1364 0 61 2 65 41
72 4 0 10 -47 13 -106z m-239 85 c2 -7 13 -274 25 -593 11 -319 23 -636 27
-703 l6 -124 -24 4 c-23 3 -25 10 -95 462 l-71 458 22 102 c13 55 37 170 55
254 30 139 44 174 55 140z"/>
<path d="M8660 10931 c0 -6 3 -11 8 -11 4 0 15 -7 25 -15 18 -13 6 -37 -191
-407 -115 -216 -264 -498 -332 -626 -93 -174 -128 -232 -139 -229 -9 3 -24 8
-33 12 -10 4 -18 3 -18 -1 1 -12 269 -153 275 -145 2 4 -9 15 -25 25 l-30 17
29 52 c22 39 578 1085 633 1190 8 16 11 16 39 1 17 -8 33 -13 37 -10 8 8 12 6
-140 86 -76 39 -138 67 -138 61z"/>
<path d="M3855 10815 c-94 -58 -172 -111 -174 -116 -2 -6 11 -4 27 5 17 9 33
13 35 8 3 -4 22 -61 42 -127 21 -66 50 -159 65 -207 16 -49 27 -88 25 -88 -2
0 -65 77 -140 172 -124 155 -135 173 -120 185 10 7 23 14 29 16 6 2 8 8 4 12
-8 9 -290 -166 -296 -184 -2 -6 18 2 44 19 26 16 51 27 55 23 38 -44 569 -714
577 -729 13 -24 152 -463 152 -480 0 -6 -20 -24 -45 -38 -25 -15 -45 -32 -45
-38 0 -6 9 -5 23 4 12 8 57 36 100 62 79 49 100 78 27 37 -31 -17 -41 -19 -44
-9 -44 131 -127 401 -124 403 2 2 63 -71 136 -163 121 -151 132 -168 116 -179
-10 -7 -15 -15 -12 -19 8 -7 458 275 458 287 0 5 -19 -2 -41 -17 -23 -14 -45
-22 -49 -17 -5 4 -174 274 -375 598 -202 325 -369 593 -371 597 -3 4 20 24 51
43 52 34 64 45 47 45 -4 0 -84 -47 -177 -105z m-9 -181 c34 -54 201 -324 372
-599 272 -438 309 -502 296 -515 -12 -12 -16 -12 -28 0 -30 32 -564 708 -574
726 -12 24 -152 468 -152 484 0 28 29 -4 86 -96z"/>
<path d="M6188 9743 c6 -2 18 -2 25 0 6 3 1 5 -13 5 -14 0 -19 -2 -12 -5z"/>
<path d="M5978 9723 c7 -3 16 -2 19 1 4 3 -2 6 -13 5 -11 0 -14 -3 -6 -6z"/>
<path d="M5838 9703 c7 -3 16 -2 19 1 4 3 -2 6 -13 5 -11 0 -14 -3 -6 -6z"/>
<path d="M5778 9693 c6 -2 18 -2 25 0 6 3 1 5 -13 5 -14 0 -19 -2 -12 -5z"/>
<path d="M5728 9683 c6 -2 18 -2 25 0 6 3 1 5 -13 5 -14 0 -19 -2 -12 -5z"/>
<path d="M5678 9673 c6 -2 18 -2 25 0 6 3 1 5 -13 5 -14 0 -19 -2 -12 -5z"/>
<path d="M5638 9663 c7 -3 16 -2 19 1 4 3 -2 6 -13 5 -11 0 -14 -3 -6 -6z"/>
<path d="M5598 9653 c7 -3 16 -2 19 1 4 3 -2 6 -13 5 -11 0 -14 -3 -6 -6z"/>
<path d="M5558 9643 c7 -3 16 -2 19 1 4 3 -2 6 -13 5 -11 0 -14 -3 -6 -6z"/>
<path d="M5495 9630 c-13 -5 -14 -9 -5 -9 8 0 24 4 35 9 13 5 14 9 5 9 -8 0
-24 -4 -35 -9z"/>
<path d="M5397 9603 c-27 -8 -47 -17 -44 -19 2 -2 30 4 63 15 32 10 52 19 44
19 -8 0 -37 -7 -63 -15z"/>
<path d="M6358 9593 c23 -2 59 -2 80 0 20 2 1 4 -43 4 -44 0 -61 -2 -37 -4z"/>
<path d="M6108 9583 c6 -2 18 -2 25 0 6 3 1 5 -13 5 -14 0 -19 -2 -12 -5z"/>
<path d="M5200 9534 c-612 -236 -1148 -650 -1529 -1182 -216 -302 -394 -671
-494 -1022 -41 -147 -71 -279 -64 -286 2 -3 8 12 11 33 27 146 151 547 167
538 11 -7 207 200 275 290 8 11 -4 -18 -27 -65 -103 -210 -182 -424 -240 -648
-21 -84 -39 -160 -38 -170 0 -9 20 60 43 153 49 192 111 367 189 541 50 109
140 281 173 329 17 24 18 39 2 29 -7 -4 -8 -3 -4 5 4 6 11 9 15 6 12 -7 123
164 115 177 -4 6 -3 8 3 5 15 -9 36 19 27 35 -4 7 -4 10 1 6 4 -4 14 -3 22 3
16 14 18 33 1 23 -7 -4 -8 -3 -4 5 4 6 11 9 16 6 12 -7 33 22 24 36 -4 7 -3 9
3 6 12 -7 45 26 41 39 -2 5 2 10 7 12 18 6 55 45 53 56 -2 6 1 12 6 12 12 3
96 87 96 97 0 4 -6 5 -12 1 -7 -4 -4 2 6 14 23 26 34 29 15 5 -7 -10 10 4 39
32 52 49 68 70 35 44 -15 -11 -14 -10 1 9 20 23 32 30 21 12 -16 -25 15 -6 55
35 24 25 40 45 36 45 -5 0 -3 6 4 14 6 8 17 13 24 10 11 -4 51 30 51 45 0 3 4
5 9 3 12 -4 47 29 41 38 -3 4 3 14 13 21 15 13 16 12 3 -3 -7 -10 -9 -18 -3
-18 12 0 34 25 27 32 -3 3 3 11 12 19 16 13 17 12 4 -3 -7 -10 -9 -18 -3 -18
12 0 34 25 27 32 -3 3 3 11 12 19 16 13 17 12 4 -3 -7 -10 -9 -18 -3 -18 11 0
30 21 30 33 0 5 4 12 8 15 4 4 4 1 -1 -7 -5 -9 -3 -12 6 -9 8 3 13 10 12 16
-1 5 5 16 15 24 15 12 16 11 3 -4 -8 -11 -9 -18 -3 -18 11 0 27 19 27 32 0 3
4 10 9 15 5 5 6 2 1 -6 -5 -9 -3 -12 6 -9 8 3 14 10 14 15 0 6 4 15 9 20 5 5
6 3 2 -4 -12 -22 3 -15 97 44 178 109 381 206 597 284 58 21 100 38 93 38 -18
1 -174 -56 -291 -106 -130 -55 -261 -121 -344 -171 -35 -21 -74 -45 -88 -52
l-25 -13 25 28 c47 52 155 169 217 235 66 69 98 86 328 174 50 19 83 35 75 35
-8 -1 -67 -21 -130 -45z m-245 -124 c-3 -5 -12 -10 -18 -10 -7 0 -6 4 3 10 19
12 23 12 15 0z m-40 -20 c-3 -5 -12 -10 -18 -10 -7 0 -6 4 3 10 19 12 23 12
15 0z m-35 -15 c0 -2 -18 -14 -40 -25 -22 -11 -40 -18 -40 -15 0 2 17 13 38
24 42 23 42 23 42 16z m-730 -699 c0 -2 -8 -10 -17 -17 -16 -13 -17 -12 -4 4
13 16 21 21 21 13z m-450 -556 c-6 -11 -13 -20 -16 -20 -2 0 0 9 6 20 6 11 13
20 16 20 2 0 0 -9 -6 -20z m-50 -80 c-6 -11 -13 -20 -16 -20 -2 0 0 9 6 20 6
11 13 20 16 20 2 0 0 -9 -6 -20z m-40 -70 c-6 -11 -13 -20 -16 -20 -2 0 0 9 6
20 6 11 13 20 16 20 2 0 0 -9 -6 -20z m-299 -307 c-12 -20 -14 -14 -5 12 4 9
9 14 11 11 3 -2 0 -13 -6 -23z"/>
<path d="M6028 9573 c6 -2 18 -2 25 0 6 3 1 5 -13 5 -14 0 -19 -2 -12 -5z"/>
<path d="M5938 9563 c6 -2 18 -2 25 0 6 3 1 5 -13 5 -14 0 -19 -2 -12 -5z"/>
<path d="M5878 9553 c6 -2 18 -2 25 0 6 3 1 5 -13 5 -14 0 -19 -2 -12 -5z"/>
<path d="M5818 9543 c6 -2 18 -2 25 0 6 3 1 5 -13 5 -14 0 -19 -2 -12 -5z"/>
<path d="M5768 9533 c7 -3 16 -2 19 1 4 3 -2 6 -13 5 -11 0 -14 -3 -6 -6z"/>
<path d="M5718 9523 c6 -2 18 -2 25 0 6 3 1 5 -13 5 -14 0 -19 -2 -12 -5z"/>
<path d="M5678 9513 c7 -3 16 -2 19 1 4 3 -2 6 -13 5 -11 0 -14 -3 -6 -6z"/>
<path d="M5605 9500 c-25 -11 1 -11 35 0 20 6 21 8 5 8 -11 0 -29 -3 -40 -8z"/>
<path d="M5558 9483 c7 -3 16 -2 19 1 4 3 -2 6 -13 5 -11 0 -14 -3 -6 -6z"/>
<path d="M5495 9470 c-13 -5 -14 -9 -5 -9 8 0 24 4 35 9 13 5 14 9 5 9 -8 0
-24 -4 -35 -9z"/>
<path d="M10585 9284 c15 -25 25 -47 23 -48 -4 -4 -1202 -738 -1210 -743 -4
-2 -17 15 -29 37 -19 34 -39 52 -39 35 0 -4 316 -520 327 -534 2 -2 6 -1 9 2
4 4 -7 28 -24 54 -17 26 -28 50 -24 54 19 16 1202 739 1209 739 4 0 19 -19 32
-42 13 -24 26 -38 28 -32 5 14 -307 524 -320 524 -5 0 3 -21 18 -46z m139
-227 c6 -9 8 -18 6 -20 -11 -11 -1213 -747 -1215 -745 -1 2 -7 13 -13 24 -11
21 21 41 591 393 331 204 606 369 611 368 5 -2 14 -11 20 -20z"/>
<path d="M6262 9308 c-7 -9 -8 -19 -2 -28 8 -13 10 -12 10 3 0 14 9 17 50 17
64 0 66 -18 3 -23 l-48 -3 53 -2 c50 -2 53 -1 50 21 -3 19 -10 22 -54 25 -33
2 -55 -2 -62 -10z"/>
<path d="M6298 9233 c-32 -4 -38 -8 -37 -26 1 -17 2 -18 6 -4 3 13 15 17 54
17 27 0 49 -4 49 -10 0 -5 -13 -10 -29 -10 -17 0 -33 -4 -36 -10 -10 -16 61
-12 75 5 15 18 -3 46 -29 43 -9 -1 -33 -3 -53 -5z"/>
<path d="M6264 9136 c-3 -8 -4 -29 -1 -48 l4 -33 1 38 2 37 50 0 50 0 0 -34
c0 -38 -12 -46 -66 -46 -42 0 -74 -15 -74 -35 0 -12 -14 -15 -59 -15 -55 0
-91 -16 -74 -33 11 -11 23 -8 21 6 -4 15 401 32 416 17 14 -14 -23 -18 -213
-25 -163 -5 -175 -7 -192 -28 -10 -12 -21 -33 -24 -47 -3 -14 -10 -38 -15 -55
-9 -28 -8 -29 5 -11 8 11 15 29 15 41 0 21 25 64 44 77 6 4 88 8 183 8 l171 0
21 -34 c12 -18 21 -41 21 -51 0 -10 7 -26 16 -36 15 -16 13 -18 -28 -23 -23
-3 -140 -8 -258 -11 -176 -5 -218 -9 -230 -22 -13 -14 -13 -14 5 -6 11 6 137
13 281 17 229 6 263 5 274 -9 7 -9 11 -18 8 -20 -3 -3 -124 -10 -269 -16 -145
-6 -266 -12 -268 -15 -2 -2 14 -4 37 -4 23 0 42 -3 42 -6 0 -3 -9 -19 -21 -35
-22 -31 -59 -128 -59 -154 0 -12 -17 -15 -96 -15 -94 0 -95 0 -89 23 12 38 65
115 106 151 38 35 49 56 28 56 -5 0 -8 -4 -5 -9 3 -5 -9 -20 -27 -33 l-32 -25
0 33 c0 27 4 34 20 35 13 0 9 4 -12 10 -32 9 -73 51 -73 74 0 26 41 65 68 65
35 0 49 -10 61 -40 6 -16 10 -19 10 -9 2 30 -34 62 -68 62 -56 0 -92 -60 -67
-114 5 -11 -1 -19 -19 -27 -25 -11 -36 -54 -16 -66 4 -3 6 6 3 20 -3 16 1 30
9 35 61 39 108 -43 54 -96 -36 -37 -108 -35 -155 5 -19 17 -38 30 -43 30 -5 0
10 -16 33 -35 23 -19 49 -35 58 -35 13 0 11 -4 -6 -16 -12 -8 -22 -20 -22 -26
0 -7 6 -4 13 5 6 9 37 25 67 35 l55 18 -31 -61 c-62 -116 -65 -267 -14 -593
24 -151 24 -150 0 -121 -17 21 -21 22 -30 9 -15 -23 -12 -37 3 -16 13 17 15
16 35 -16 24 -38 32 -102 10 -80 -7 7 -26 11 -42 11 l-31 -2 30 -4 c65 -10 72
-47 20 -112 -33 -42 -35 -43 -35 -17 0 26 -36 73 -48 62 -3 -4 4 -13 16 -22
30 -21 29 -64 -4 -95 -36 -34 -117 -35 -144 -1 -10 12 -22 22 -26 22 -13 0 28
-40 56 -53 22 -11 34 -12 71 -1 24 8 45 14 45 14 1 0 -7 -18 -18 -39 -15 -31
-17 -44 -8 -60 17 -33 51 -34 160 -7 56 13 108 22 116 19 21 -8 26 -40 10 -70
-29 -57 -100 -70 -123 -23 -8 16 -13 19 -13 9 0 -21 32 -49 56 -49 56 0 115
70 99 119 -6 20 -3 21 56 21 61 0 62 0 45 -19 -10 -11 -16 -26 -13 -33 4 -9 6
-7 6 4 1 27 40 49 64 37 14 -8 18 -8 13 0 -5 7 5 11 26 12 18 0 108 2 199 5
l166 5 -5 -31 c-6 -40 51 -100 96 -100 34 0 62 22 62 48 0 12 -4 9 -13 -8 -9
-18 -22 -26 -45 -28 -69 -7 -130 107 -62 117 14 2 66 -5 116 -14 95 -19 141
-15 151 12 6 14 2 27 -22 87 -7 15 -5 17 5 11 20 -12 90 -24 84 -14 -3 5 1 9
9 9 26 0 66 46 60 69 -8 32 -20 34 -15 3 8 -59 -88 -90 -151 -49 -22 14 -27
25 -27 57 0 29 5 42 20 50 11 6 20 15 20 21 0 5 -11 2 -25 -8 -17 -13 -24 -28
-25 -52 0 -34 0 -34 -20 -16 -34 30 -61 81 -54 100 4 9 21 23 38 31 17 7 24
13 15 14 -8 0 -24 -7 -35 -15 -29 -22 -36 -18 -29 18 16 70 54 114 56 65 1
-19 2 -20 6 -4 3 10 0 23 -7 30 -9 8 -17 5 -32 -14 l-21 -25 7 55 c22 174 29
493 13 577 -7 36 -6 42 10 46 14 4 13 5 -5 6 -13 1 -26 10 -31 24 -5 12 -21
39 -36 61 -21 31 -23 37 -8 31 33 -14 93 -22 93 -14 0 5 6 9 13 9 7 0 29 16
48 36 23 24 26 32 12 23 -13 -8 -23 -17 -23 -21 0 -12 -57 -38 -85 -38 -33 0
-81 24 -89 45 -10 28 -7 62 8 75 22 18 59 8 73 -20 9 -17 13 -20 13 -8 0 17
-25 48 -40 48 -4 0 -6 18 -3 40 5 33 2 45 -17 65 -28 30 -79 33 -103 7 -18
-19 -23 -67 -9 -76 5 -3 6 8 4 25 -6 39 13 59 54 59 25 0 38 -7 49 -24 36 -54
-3 -113 -81 -122 -37 -5 -40 -3 -76 47 -21 28 -38 59 -38 68 0 9 -9 30 -20 48
-19 32 -19 32 1 38 12 4 19 14 17 23 -3 14 -17 18 -70 20 -56 2 -67 6 -71 22
-3 11 -12 20 -20 20 -10 0 -13 8 -9 25 2 13 1 36 -2 50 -6 23 -11 25 -62 25
-38 0 -56 -4 -60 -14z m141 -117 c-8 -12 -165 -12 -165 1 0 8 145 19 163 12 4
-2 5 -8 2 -13z m307 -294 c2 -19 2 -35 0 -35 -1 0 -19 12 -38 28 l-34 27 27 6
c16 4 31 7 34 8 4 0 9 -15 11 -34z m-381 -12 c1 -17 2 -17 6 0 4 14 17 17 88
17 l83 0 31 -49 c33 -50 67 -138 58 -147 -3 -3 -60 -8 -126 -11 l-121 -6 -2
84 -2 84 -3 -82 -4 -83 -33 0 c-18 0 -75 -3 -126 -7 l-92 -6 7 34 c10 48 54
145 74 163 9 8 42 16 76 19 33 2 66 4 73 5 6 1 13 -6 13 -15z m353 -15 c36
-29 116 -140 116 -160 0 -4 -42 -8 -93 -8 l-93 0 -11 43 c-7 23 -28 68 -47
100 l-35 57 62 0 c55 0 67 -4 101 -32z m128 -205 c14 -33 17 -332 5 -435 l-9
-68 -87 0 -88 0 1 233 c1 127 -2 244 -7 259 -7 26 -5 27 35 31 123 11 138 9
150 -20z m-197 -35 c3 -29 5 -147 3 -263 l-3 -210 -85 -3 -85 -3 32 33 c40 41
56 83 48 126 -4 24 -2 34 9 38 12 4 7 14 -20 41 -29 29 -40 34 -62 28 -32 -8
-59 -31 -67 -56 -16 -49 -23 -5 -24 151 l-2 170 125 0 125 0 6 -52z m-545
-105 c0 -81 5 -198 11 -261 6 -62 10 -115 8 -116 -2 -2 -44 -5 -94 -7 l-90 -4
-12 80 c-16 103 -28 361 -19 408 l7 36 72 4 c40 1 82 4 95 5 22 2 22 1 22
-145z m274 125 c3 -13 6 -95 6 -183 l0 -160 -38 -62 c-62 -100 -66 -103 -138
-103 -75 0 -70 -12 -84 174 -11 144 -13 316 -4 340 5 13 26 16 129 16 119 0
123 -1 129 -22z m459 -505 c2 -5 0 -44 -4 -88 -9 -84 -2 -198 11 -190 11 7
108 -110 128 -153 25 -52 9 -68 -69 -64 -75 3 -107 22 -37 22 48 0 73 16 58
39 -8 14 -178 13 -805 -5 -223 -6 -235 -8 -235 -34 0 -24 37 -35 83 -26 23 5
29 4 20 -5 -6 -6 -43 -14 -81 -17 -56 -4 -70 -2 -75 11 -9 23 45 124 94 177
l41 45 -6 100 c-3 55 -9 115 -12 133 l-6 32 96 0 c93 0 96 -1 97 -22 1 -13 5
-84 9 -158 l8 -135 -3 163 -2 162 55 0 56 0 -27 -28 c-15 -15 -27 -33 -27 -40
0 -22 30 -12 58 19 23 26 37 32 80 36 l51 4 4 -133 3 -133 2 136 2 136 46 7
c26 3 80 6 120 6 l74 0 2 -142 2 -143 6 140 c4 77 8 141 9 142 0 1 36 4 79 6
42 1 80 4 84 5 4 1 9 -1 11 -5z"/>
<path d="M6622 7660 c0 -14 2 -19 5 -12 2 6 2 18 0 25 -3 6 -5 1 -5 -13z"/>
<path d="M6811 7670 c0 -8 6 -28 14 -45 17 -39 18 -21 0 25 -7 19 -14 28 -14
20z"/>
<path d="M5911 7634 c0 -11 3 -14 6 -6 3 7 2 16 -1 19 -3 4 -6 -2 -5 -13z"/>
<path d="M6372 7630 c0 -14 2 -19 5 -12 2 6 2 18 0 25 -3 6 -5 1 -5 -13z"/>
<path d="M6631 7614 c0 -11 3 -14 6 -6 3 7 2 16 -1 19 -3 4 -6 -2 -5 -13z"/>
<path d="M6101 7594 c0 -11 3 -14 6 -6 3 7 2 16 -1 19 -3 4 -6 -2 -5 -13z"/>
<path d="M6450 9129 c0 -5 4 -7 10 -4 5 3 12 -7 16 -22 10 -46 12 -50 13 -17
1 28 -14 54 -31 54 -4 0 -8 -5 -8 -11z"/>
<path d="M6165 9119 c-11 -16 -1 -19 13 -3 7 8 8 14 3 14 -5 0 -13 -5 -16 -11z"/>
<path d="M6442 9085 c0 -16 2 -22 5 -12 2 9 2 23 0 30 -3 6 -5 -1 -5 -18z"/>
<path d="M6548 9083 l24 -5 -24 -26 -23 -27 28 24 c15 14 27 28 27 33 0 4 -12
7 -27 7 -25 -2 -26 -2 -5 -6z"/>
<path d="M6066 9071 c-3 -4 7 -19 22 -32 20 -18 22 -19 9 -3 -21 26 -21 31 1
37 13 4 12 5 -5 6 -12 0 -24 -3 -27 -8z"/>
<path d="M6120 9066 c0 -2 8 -10 18 -17 15 -13 16 -12 3 4 -13 16 -21 21 -21
13z"/>
<path d="M1962 8965 c-46 -93 -47 -95 -32 -95 6 0 10 7 10 15 0 8 4 15 9 15 8
0 262 -219 321 -277 l25 -24 -30 11 c-16 6 -109 41 -205 76 -96 36 -176 67
-179 69 -2 3 1 16 7 30 6 14 8 25 3 25 -8 0 -161 -289 -161 -304 0 -20 19 0
38 40 18 37 27 45 43 41 11 -3 210 -76 443 -162 l422 -157 192 -169 192 -170
-25 -46 c-14 -25 -24 -50 -22 -57 2 -6 27 36 56 93 29 57 50 105 47 108 -2 3
-14 -14 -26 -36 -18 -37 -23 -40 -38 -29 -24 17 -322 279 -322 283 0 2 60 -19
133 -46 72 -28 165 -62 204 -76 67 -23 72 -27 67 -49 -3 -13 -3 -24 0 -24 10
0 157 301 153 313 -2 7 -17 -14 -33 -45 -15 -32 -32 -58 -36 -58 -4 0 -68 22
-140 49 -73 27 -214 79 -313 116 -449 166 -407 146 -518 243 -55 48 -142 124
-194 170 l-93 83 30 59 c32 64 34 70 22 70 -4 0 -27 -38 -50 -85z"/>
<path d="M6678 8813 c7 -3 16 -2 19 1 4 3 -2 6 -13 5 -11 0 -14 -3 -6 -6z"/>
<path d="M6909 8756 c18 -18 21 -18 36 -2 17 17 16 18 -28 20 -27 2 -27 1 -8
-18z"/>
<path d="M5725 8740 c-3 -5 -3 -10 2 -11 4 0 -1 -4 -12 -9 -16 -7 -14 -8 12
-7 19 1 36 10 44 22 11 18 11 19 -4 6 -11 -9 -17 -10 -17 -2 0 14 -17 15 -25
1z"/>
<path d="M6845 8740 c-3 -6 1 -13 10 -16 19 -8 30 0 20 15 -8 14 -22 14 -30 1z"/>
<path d="M6958 8743 c7 -3 16 -2 19 1 4 3 -2 6 -13 5 -11 0 -14 -3 -6 -6z"/>
<path d="M6760 8725 c0 -8 5 -15 10 -15 6 0 10 7 10 15 0 8 -4 15 -10 15 -5 0
-10 -7 -10 -15z"/>
<path d="M6974 8720 c16 -5 33 -15 37 -22 7 -10 9 -10 9 -1 0 15 -32 33 -57
32 -10 0 -6 -4 11 -9z"/>
<path d="M5802 8708 c5 -15 28 -18 29 -3 0 6 -7 12 -17 13 -10 3 -15 -1 -12
-10z"/>
<path d="M5897 8714 c-8 -8 1 -24 14 -24 5 0 9 7 9 15 0 15 -12 20 -23 9z"/>
<path d="M5669 8673 c-13 -16 -12 -17 4 -4 9 7 17 15 17 17 0 8 -8 3 -21 -13z"/>
<path d="M6957 8684 c-8 -8 1 -24 14 -24 5 0 9 7 9 15 0 15 -12 20 -23 9z"/>
<path d="M6999 8653 c-13 -16 -12 -17 4 -4 9 7 17 15 17 17 0 8 -8 3 -21 -13z"/>
<path d="M5706 8653 c-11 -11 -6 -23 9 -23 8 0 15 4 15 9 0 13 -16 22 -24 14z"/>
<path d="M6806 8592 c-2 -4 -1 -14 4 -22 7 -11 12 -12 21 -3 6 6 8 16 5 22 -8
13 -23 14 -30 3z"/>
<path d="M6881 8585 c0 -12 -5 -26 -11 -33 -5 -7 -3 -6 6 2 9 7 14 22 11 32
-4 17 -5 17 -6 -1z"/>
<path d="M5850 8555 c0 -8 7 -15 15 -15 8 0 15 7 15 15 0 8 -7 15 -15 15 -8 0
-15 -7 -15 -15z"/>
<path d="M5812 8524 c10 -10 20 -16 22 -13 3 3 -5 11 -17 18 -21 13 -21 12 -5
-5z"/>
<path d="M6928 7872 c10 -7 8 -15 -9 -38 l-21 -29 26 28 c30 33 33 47 9 47
-13 0 -15 -2 -5 -8z"/>
<path d="M6885 7860 c-3 -6 1 -7 9 -4 18 7 21 14 7 14 -6 0 -13 -4 -16 -10z"/>
<path d="M5770 7843 c0 -5 10 -19 21 -33 17 -21 19 -22 10 -3 -6 12 -11 24
-11 27 0 12 24 5 44 -11 21 -18 21 -18 2 5 -18 20 -66 31 -66 15z"/>
<path d="M5860 7816 c0 -8 4 -17 9 -20 5 -4 7 3 4 14 -6 23 -13 26 -13 6z"/>
<path d="M6891 7786 c2 -2 15 -9 29 -15 24 -11 24 -11 6 3 -16 13 -49 24 -35
12z"/>
<path d="M5793 7735 c-3 -9 -3 -18 -1 -21 3 -3 8 4 11 16 6 23 -1 27 -10 5z"/>
<path d="M6966 7706 c10 -8 21 -12 24 -10 5 6 -21 24 -34 24 -6 0 -1 -6 10
-14z"/>
<path d="M7080 7697 c8 -9 29 -18 45 -20 17 -3 22 -2 13 0 -10 2 -15 10 -11
19 3 8 -1 14 -11 14 -9 0 -16 -5 -16 -11 0 -8 -6 -7 -17 2 -16 12 -17 11 -3
-4z"/>
<path d="M5750 7675 c-6 -8 -10 -22 -7 -32 4 -14 5 -13 6 5 1 13 10 26 24 32
15 6 17 9 6 9 -9 1 -22 -6 -29 -14z"/>
<path d="M7020 7665 c0 -8 7 -15 15 -15 8 0 15 7 15 15 0 8 -7 15 -15 15 -8 0
-15 -7 -15 -15z"/>
<path d="M5605 7660 c-3 -5 0 -10 7 -11 7 -1 2 -5 -12 -9 -23 -7 -23 -8 -4 -9
12 -1 30 7 41 17 10 9 13 13 6 8 -8 -5 -13 -4 -13 3 0 14 -17 15 -25 1z"/>
<path d="M6932 7659 c2 -6 8 -10 13 -10 5 0 11 4 13 10 2 6 -4 11 -13 11 -9 0
-15 -5 -13 -11z"/>
<path d="M7116 7652 c-3 -5 8 -6 25 -4 16 2 29 6 29 8 0 8 -49 4 -54 -4z"/>
<path d="M5685 7640 c-8 -13 4 -32 16 -25 12 8 12 35 0 35 -6 0 -13 -4 -16
-10z"/>
<path d="M7188 7623 c3 -18 -1 -30 -13 -40 -11 -7 -14 -13 -9 -13 27 0 48 60
25 74 -4 3 -6 -6 -3 -21z"/>
<path d="M5780 7624 c0 -8 5 -12 10 -9 6 3 10 10 10 16 0 5 -4 9 -10 9 -5 0
-10 -7 -10 -16z"/>
<path d="M5570 7616 c0 -2 13 -6 29 -8 17 -2 28 -1 25 4 -5 8 -54 12 -54 4z"/>
<path d="M7130 7610 c0 -5 7 -10 15 -10 8 0 15 5 15 10 0 6 -7 10 -15 10 -8 0
-15 -4 -15 -10z"/>
<path d="M5545 7599 c-4 -6 -5 -12 -2 -15 2 -3 7 2 10 11 7 17 1 20 -8 4z"/>
<path d="M5580 7570 c0 -5 7 -10 16 -10 8 0 12 5 9 10 -3 6 -10 10 -16 10 -5
0 -9 -4 -9 -10z"/>
<path d="M5540 7563 c0 -6 8 -17 18 -24 16 -13 16 -13 2 6 -8 11 -16 22 -17
24 -2 2 -3 0 -3 -6z"/>
<path d="M7046 7547 c3 -10 9 -15 12 -12 3 3 0 11 -7 18 -10 9 -11 8 -5 -6z"/>
<path d="M5690 7515 c-7 -9 -11 -17 -9 -20 3 -2 10 5 17 15 14 24 10 26 -8 5z"/>
<path d="M6985 7520 c-8 -13 4 -32 16 -25 12 8 12 35 0 35 -6 0 -13 -4 -16
-10z"/>
<path d="M7056 7505 c-9 -26 -7 -32 5 -12 6 10 9 21 6 23 -2 3 -7 -2 -11 -11z"/>
<path d="M5734 7489 c-3 -6 -2 -15 2 -19 12 -12 38 5 30 19 -9 14 -23 14 -32
0z"/>
<path d="M6531 7463 c7 -12 15 -20 18 -17 3 2 -3 12 -13 22 -17 16 -18 16 -5
-5z"/>
<path d="M5682 7460 c8 -24 56 -37 71 -19 7 7 8 11 3 7 -17 -13 -44 -9 -62 9
-13 13 -16 14 -12 3z"/>
<path d="M6470 7450 c-12 -7 -12 -12 -2 -22 9 -9 15 -9 24 0 8 8 9 15 2 22 -5
5 -15 6 -24 0z"/>
<path d="M6770 7456 c0 -2 8 -10 18 -17 15 -13 16 -12 3 4 -13 16 -21 21 -21
13z"/>
<path d="M6240 7436 c0 -9 7 -16 16 -16 9 0 14 5 12 12 -6 18 -28 21 -28 4z"/>
<path d="M6343 7438 c-7 -9 -3 -23 13 -46 21 -31 23 -32 33 -13 6 11 21 21 33
24 21 3 22 4 4 12 -14 6 -24 2 -38 -16 -17 -20 -19 -21 -13 -4 12 34 11 49 -6
53 -9 1 -20 -3 -26 -10z"/>
<path d="M5959 7423 c-13 -16 -12 -17 4 -4 9 7 17 15 17 17 0 8 -8 3 -21 -13z"/>
<path d="M6531 7407 c-13 -21 -12 -21 5 -5 10 10 16 20 13 22 -3 3 -11 -5 -18
-17z"/>
<path d="M6290 7410 c-13 -8 -12 -10 4 -10 11 0 31 -10 44 -22 26 -23 21 -8
-6 25 -17 20 -21 20 -42 7z"/>
<path d="M6190 7406 c0 -2 8 -10 18 -17 15 -13 16 -12 3 4 -13 16 -21 21 -21
13z"/>
<path d="M6645 7383 c11 -3 26 -12 33 -21 6 -9 12 -11 12 -6 0 17 -23 34 -44
33 -21 -1 -21 -1 -1 -6z"/>
<path d="M6215 7367 c-28 -17 -97 -77 -87 -77 4 0 13 5 20 12 9 9 12 8 13 -7
1 -12 4 -8 8 10 18 84 181 68 181 -19 0 -36 -15 -55 -44 -57 -18 -1 -19 -2 -3
-6 42 -11 73 58 47 106 -17 32 -103 56 -135 38z"/>
<path d="M6433 7365 c-35 -15 -53 -41 -53 -79 0 -26 23 -56 43 -56 6 0 1 7
-11 16 -50 35 -14 105 63 123 28 6 32 9 15 10 -14 0 -39 -6 -57 -14z"/>
<path d="M6543 7354 c15 -8 27 -19 27 -24 0 -6 5 -10 12 -10 6 0 1 11 -12 25
-13 14 -31 25 -39 25 -10 -1 -5 -7 12 -16z"/>
<path d="M6620 7350 c0 -5 7 -10 15 -10 8 0 15 5 15 10 0 6 -7 10 -15 10 -8 0
-15 -4 -15 -10z"/>
<path d="M6051 7334 c0 -12 7 -28 17 -35 15 -12 16 -12 6 1 -7 8 -14 24 -17
35 -4 19 -5 19 -6 -1z"/>
<path d="M6090 7340 c0 -5 7 -10 15 -10 8 0 15 5 15 10 0 6 -7 10 -15 10 -8 0
-15 -4 -15 -10z"/>
<path d="M6676 7323 c-6 -14 -5 -15 5 -6 7 7 10 15 7 18 -3 3 -9 -2 -12 -12z"/>
<path d="M6756 7327 c3 -10 9 -15 12 -12 3 3 0 11 -7 18 -10 9 -11 8 -5 -6z"/>
<path d="M5987 7312 c-18 -20 -23 -62 -8 -62 5 0 19 9 32 21 l24 21 -27 -16
c-26 -15 -28 -15 -28 0 0 10 7 26 17 36 9 10 14 18 11 18 -3 0 -12 -8 -21 -18z"/>
<path d="M6609 7307 c5 -5 19 -7 32 -5 20 3 19 5 -9 9 -20 3 -29 2 -23 -4z"/>
<path d="M6716 7307 c4 -12 45 -37 59 -37 3 0 5 8 5 18 0 12 -2 14 -8 4 -7
-10 -15 -8 -35 8 -17 14 -25 16 -21 7z"/>
<path d="M6524 7296 c-4 -9 -4 -20 0 -23 3 -4 12 -1 18 5 9 9 9 15 0 24 -9 9
-13 7 -18 -6z"/>
<path d="M6200 7280 c0 -13 5 -20 13 -17 6 2 12 10 12 17 0 7 -6 15 -12 18 -8
2 -13 -5 -13 -18z"/>
<path d="M6290 7285 c0 -9 5 -15 11 -13 6 2 11 8 11 13 0 5 -5 11 -11 13 -6 2
-11 -4 -11 -13z"/>
<path d="M6430 7291 c0 -6 5 -13 10 -16 6 -3 10 1 10 9 0 9 -4 16 -10 16 -5 0
-10 -4 -10 -9z"/>
<path d="M6481 7273 c0 -12 -9 -27 -18 -32 -10 -6 -13 -11 -7 -11 18 0 36 27
31 47 -4 14 -5 14 -6 -4z"/>
<path d="M6635 7279 c-4 -6 -13 -8 -21 -5 -8 3 -14 -1 -14 -9 0 -21 14 -19 35
5 10 11 15 20 12 20 -3 0 -9 -5 -12 -11z"/>
<path d="M6118 7250 c10 -13 20 -16 27 -10 7 6 15 8 19 5 3 -3 2 0 -4 7 -5 6
-20 12 -34 14 -23 2 -24 1 -8 -16z"/>
<path d="M6527 7206 c35 -31 22 -46 -20 -23 l-32 17 24 -20 c26 -23 61 -27 61
-7 0 14 -41 57 -54 57 -4 0 6 -11 21 -24z"/>
<path d="M6212 7197 c-12 -13 -22 -26 -22 -30 0 -15 58 -6 71 11 11 14 11 15
-1 5 -8 -7 -25 -13 -39 -13 l-26 1 28 24 c15 14 24 25 19 25 -5 0 -18 -10 -30
-23z"/>
<path d="M6319 7160 c-5 -43 -22 -46 -30 -5 -6 28 -7 28 -8 4 0 -14 5 -34 13
-44 13 -18 14 -18 25 4 7 12 11 34 9 49 -4 24 -5 24 -9 -8z"/>
<path d="M6422 7170 c0 -14 2 -19 5 -12 2 6 2 18 0 25 -3 6 -5 1 -5 -13z"/>
<path d="M6457 7151 c-3 -13 -10 -20 -16 -16 -6 3 -11 2 -11 -4 0 -5 4 -12 9
-16 12 -7 34 31 28 48 -2 6 -6 1 -10 -12z"/>
<path d="M3102 7005 c0 -16 2 -22 5 -12 2 9 2 23 0 30 -3 6 -5 -1 -5 -18z"/>
<path d="M3252 6975 c0 -16 2 -22 5 -12 2 9 2 23 0 30 -3 6 -5 -1 -5 -18z"/>
<path d="M3092 6950 c0 -14 2 -19 5 -12 2 6 2 18 0 25 -3 6 -5 1 -5 -13z"/>
<path d="M11470 6913 l0 -52 -52 -5 c-29 -3 -138 -8 -243 -11 -104 -3 -361
-12 -570 -20 -209 -8 -420 -15 -470 -17 l-90 -2 -3 47 c-2 26 -7 47 -13 47 -5
0 -7 -10 -5 -22 3 -13 10 -197 17 -410 7 -214 16 -388 21 -388 4 0 8 18 8 39
0 39 1 40 43 45 23 3 188 10 367 16 179 6 429 15 555 20 127 5 282 10 345 12
l115 3 5 -45 c3 -25 8 -40 11 -35 9 15 -22 809 -32 820 -5 5 -9 -12 -9 -42z
m10 -258 c0 -17 -6 -25 -17 -25 -26 0 -776 -28 -1058 -40 -350 -14 -355 -14
-355 10 0 11 6 22 13 24 6 2 230 12 497 21 415 15 735 27 883 33 33 2 37 0 37
-23z m10 -230 c0 -20 -6 -25 -32 -29 -18 -3 -310 -14 -648 -26 -338 -11 -645
-23 -682 -26 l-68 -6 0 30 0 29 148 6 c81 4 278 12 437 18 160 6 371 14 470
18 99 4 224 9 278 9 97 2 97 2 97 -23z"/>
<path d="M3242 6910 c0 -14 2 -19 5 -12 2 6 2 18 0 25 -3 6 -5 1 -5 -13z"/>
<path d="M3082 6890 c0 -19 2 -27 5 -17 2 9 2 25 0 35 -3 9 -5 1 -5 -18z"/>
<path d="M3233 6845 c0 -22 2 -30 4 -17 2 12 2 30 0 40 -3 9 -5 -1 -4 -23z"/>
<path d="M3072 6815 c0 -16 2 -22 5 -12 2 9 2 23 0 30 -3 6 -5 -1 -5 -18z"/>
<path d="M3222 6765 c0 -16 2 -22 5 -12 2 9 2 23 0 30 -3 6 -5 -1 -5 -18z"/>
<path d="M9922 6740 c0 -14 2 -19 5 -12 2 6 2 18 0 25 -3 6 -5 1 -5 -13z"/>
<path d="M3063 6715 c0 -22 2 -30 4 -17 2 12 2 30 0 40 -3 9 -5 -1 -4 -23z"/>
<path d="M3213 6665 c0 -27 2 -38 4 -22 2 15 2 37 0 50 -2 12 -4 0 -4 -28z"/>
<path d="M2720 6607 c0 -47 -4 -67 -12 -67 -7 0 -215 -32 -463 -71 l-450 -70
-250 53 -250 54 -3 62 c-4 90 -22 77 -21 -15 1 -83 16 -161 18 -94 1 30 4 33
24 27 12 -3 111 -24 220 -47 108 -23 195 -44 193 -46 -2 -3 -87 -17 -188 -34
-100 -16 -195 -31 -210 -34 -23 -4 -28 -1 -28 15 0 11 -5 20 -11 20 -8 0 -10
-40 -5 -137 3 -76 9 -204 12 -285 4 -84 11 -148 16 -148 6 0 7 25 3 64 l-7 63
173 7 c96 4 401 15 679 26 652 26 580 28 581 -17 1 -21 5 -51 10 -68 5 -18 6
34 4 130 -3 88 -5 190 -5 228 0 38 -4 67 -10 67 -5 0 -10 -20 -10 -45 0 -25
-2 -45 -4 -45 -14 0 -420 91 -424 95 -3 3 -1 5 4 5 5 0 94 14 198 30 226 36
226 36 226 10 0 -11 3 -20 8 -20 8 0 -4 339 -12 348 -3 3 -6 -25 -6 -61z
m-240 -371 c194 -42 246 -56 248 -69 3 -12 -3 -17 -20 -17 -13 0 -248 -9 -523
-20 -941 -36 -871 -35 -879 -15 -3 10 -4 20 -2 23 4 4 883 147 921 150 6 1
120 -23 255 -52z"/>
<path d="M3053 6590 c0 -25 2 -35 4 -22 2 12 2 32 0 45 -2 12 -4 2 -4 -23z"/>
<path d="M9932 6575 c0 -16 2 -22 5 -12 2 9 2 23 0 30 -3 6 -5 -1 -5 -18z"/>
<path d="M6452 6559 c22 -18 48 -80 48 -117 0 -105 -119 -217 -192 -182 l-23
11 23 -20 c48 -42 147 -36 208 11 33 27 64 92 64 138 0 73 -53 145 -120 165
-22 6 -23 6 -8 -6z"/>
<path d="M3204 6415 c0 -71 1 -99 3 -62 2 37 2 96 0 130 -2 34 -3 4 -3 -68z"/>
<path d="M9933 6210 c0 -47 2 -66 4 -42 2 23 2 61 0 85 -2 23 -4 4 -4 -43z"/>
<path d="M9752 6090 c0 -14 2 -19 5 -12 2 6 2 18 0 25 -3 6 -5 1 -5 -13z"/>
<path d="M9923 6065 c0 -22 2 -30 4 -17 2 12 2 30 0 40 -3 9 -5 -1 -4 -23z"/>
<path d="M9906 5944 c-4 -37 -5 -69 -2 -71 2 -3 7 25 11 62 4 36 5 68 3 71 -3
2 -8 -25 -12 -62z"/>
<path d="M9742 5980 c0 -14 2 -19 5 -12 2 6 2 18 0 25 -3 6 -5 1 -5 -13z"/>
<path d="M9732 5920 c0 -14 2 -19 5 -12 2 6 2 18 0 25 -3 6 -5 1 -5 -13z"/>
<path d="M9722 5850 c0 -14 2 -19 5 -12 2 6 2 18 0 25 -3 6 -5 1 -5 -13z"/>
<path d="M9882 5785 c-21 -128 -70 -318 -123 -482 -28 -84 -52 -153 -55 -153
-3 0 -3 10 1 23 5 18 1 16 -26 -13 -18 -19 -79 -85 -136 -147 -58 -61 -111
-120 -119 -130 -7 -10 8 30 35 88 83 180 213 549 210 600 0 8 -18 -46 -40
-120 -66 -222 -194 -524 -296 -698 -13 -23 -21 -48 -17 -54 4 -7 3 -9 -4 -5
-6 3 -16 -2 -21 -13 -14 -26 -14 -34 2 -25 7 4 9 3 4 -2 -5 -5 -13 -9 -17 -9
-15 0 -71 -95 -64 -107 4 -6 3 -8 -3 -5 -14 9 -46 -40 -37 -55 4 -6 3 -8 -4
-4 -14 8 -55 -50 -46 -65 4 -7 3 -9 -4 -6 -13 9 -74 -72 -65 -86 3 -6 1 -7 -5
-3 -13 8 -44 -33 -35 -47 3 -6 1 -7 -5 -3 -13 8 -54 -43 -45 -57 3 -5 1 -7 -4
-4 -14 9 -75 -61 -67 -75 4 -6 3 -8 -3 -5 -12 8 -206 -187 -196 -197 4 -4 3
-6 -4 -4 -15 4 -103 -70 -100 -84 1 -7 -5 -12 -13 -13 -20 0 -151 -106 -144
-116 2 -4 -1 -11 -7 -15 -8 -4 -9 -3 -5 4 4 7 3 12 -2 12 -11 0 -39 -31 -34
-37 2 -3 0 -8 -4 -11 -4 -4 -4 -1 1 7 5 9 3 12 -6 9 -8 -3 -14 -10 -14 -16 0
-6 -7 -17 -15 -24 -12 -11 -12 -11 -1 5 8 10 9 17 3 17 -11 0 -27 -19 -27 -32
0 -3 -4 -10 -9 -15 -5 -5 -6 -2 -1 6 5 9 3 12 -6 9 -8 -3 -14 -10 -14 -16 0
-5 -4 -14 -9 -19 -5 -5 -6 -2 -1 6 5 9 3 12 -6 9 -8 -3 -14 -10 -14 -16 0 -5
-4 -14 -9 -19 -5 -5 -6 -2 -1 6 5 9 3 12 -6 9 -8 -3 -14 -10 -14 -16 0 -5 -4
-14 -9 -19 -5 -5 -6 -2 -1 6 5 9 3 12 -6 9 -8 -3 -14 -10 -14 -16 0 -5 -4 -14
-9 -19 -5 -5 -6 -3 -2 5 12 20 -1 14 -79 -33 -78 -47 -294 -157 -383 -195 -29
-13 -51 -25 -48 -27 11 -11 273 119 461 228 l40 23 -44 -49 c-25 -28 -92 -101
-150 -164 -58 -62 -105 -117 -104 -121 6 -21 -386 -167 -607 -225 -69 -19
-119 -34 -112 -34 44 -3 368 96 542 164 165 65 402 183 394 196 -4 8 -3 9 4 5
15 -9 75 22 67 34 -3 6 0 8 7 5 17 -6 184 98 331 208 711 529 1196 1299 1367
2170 12 59 20 115 18 125 -2 9 -9 -19 -16 -63z m-189 -670 c-3 -9 -8 -14 -10
-11 -3 3 -2 9 2 15 9 16 15 13 8 -4z m-22 -52 c-12 -20 -14 -14 -5 12 4 9 9
14 11 11 3 -2 0 -13 -6 -23z m-306 -293 c-9 -16 -18 -30 -21 -30 -2 0 2 14 11
30 9 17 18 30 21 30 2 0 -2 -13 -11 -30z m-1349 -1515 c-11 -8 -25 -15 -30
-15 -6 1 0 7 14 15 32 19 40 18 16 0z m-86 -39 c0 -2 -7 -7 -16 -10 -8 -3 -12
-2 -9 4 6 10 25 14 25 6z"/>
<path d="M9712 5790 c0 -14 2 -19 5 -12 2 6 2 18 0 25 -3 6 -5 1 -5 -13z"/>
<path d="M9702 5740 c0 -14 2 -19 5 -12 2 6 2 18 0 25 -3 6 -5 1 -5 -13z"/>
<path d="M9691 5694 c0 -11 3 -14 6 -6 3 7 2 16 -1 19 -3 4 -6 -2 -5 -13z"/>
<path d="M9682 5650 c0 -14 2 -19 5 -12 2 6 2 18 0 25 -3 6 -5 1 -5 -13z"/>
<path d="M9671 5604 c0 -11 3 -14 6 -6 3 7 2 16 -1 19 -3 4 -6 -2 -5 -13z"/>
<path d="M9807 5048 c-70 -123 -419 -790 -415 -794 3 -3 14 8 24 24 l19 29
623 -332 c342 -182 625 -334 628 -337 3 -4 -2 -20 -11 -37 -8 -17 -11 -31 -6
-31 5 0 34 46 64 103 30 56 129 242 221 414 91 171 166 314 166 317 0 18 -18
1 -33 -28 l-16 -34 -333 177 c-628 334 -903 481 -917 490 -11 7 -10 15 8 45
13 20 18 36 13 36 -6 0 -21 -19 -35 -42z m550 -530 c352 -187 623 -337 623
-345 0 -7 -2 -13 -4 -13 -3 0 -288 151 -635 336 -538 286 -655 354 -614 354 4
0 287 -149 630 -332z m-469 16 c345 -183 818 -436 920 -491 54 -29 80 -49 74
-55 -6 -6 -204 94 -558 283 -302 160 -584 310 -626 333 -43 23 -78 47 -78 54
0 6 3 12 6 12 3 0 121 -61 262 -136z m247 -366 c325 -173 605 -323 624 -332
22 -12 30 -21 23 -28 -7 -7 -212 97 -634 322 -342 182 -625 333 -627 335 -5 6
10 26 17 21 4 -2 273 -145 597 -318z"/>
<path d="M2970 4943 c0 -7 9 -27 20 -45 l19 -33 -172 -106 c-95 -58 -367 -227
-606 -374 -425 -262 -435 -268 -450 -248 -9 11 -21 29 -27 39 -7 11 -14 17
-18 13 -3 -3 51 -97 121 -210 69 -112 159 -259 201 -326 41 -68 79 -123 83
-123 5 0 6 6 3 13 -3 8 93 59 294 155 164 78 301 142 305 142 4 0 -102 -91
-235 -201 -134 -111 -251 -209 -261 -218 -19 -15 -27 -10 -40 24 -3 6 -7 7
-11 4 -4 -4 30 -67 75 -140 92 -151 87 -144 95 -137 3 3 -4 21 -15 39 -12 19
-21 37 -21 41 0 6 952 815 1062 903 20 16 36 30 34 32 -1 1 -54 -23 -117 -53
-63 -31 -188 -91 -279 -134 -91 -43 -329 -157 -530 -254 -327 -157 -411 -191
-368 -151 7 7 225 143 483 302 259 160 526 325 594 367 93 58 126 74 132 64
21 -34 28 -42 34 -37 5 5 -372 626 -396 654 -6 5 -9 5 -9 -2z m144 -249 c4 -9
5 -18 4 -20 -7 -7 -1191 -736 -1202 -740 -11 -4 -32 24 -24 31 2 1 208 128
458 283 250 154 520 321 600 370 80 50 148 91 151 91 4 1 10 -6 13 -15z m119
-188 c4 -9 -186 -131 -600 -387 -333 -206 -608 -373 -611 -371 -33 12 44 65
588 402 327 203 600 369 606 369 7 1 14 -5 17 -13z"/>
<path d="M4205 3390 c-3 -4 8 -13 23 -19 15 -7 35 -18 45 -25 17 -13 -5 -58
-314 -637 -182 -343 -333 -626 -335 -628 -3 -3 -25 5 -50 18 -26 12 -49 19
-53 15 -3 -4 -1 -8 4 -10 6 -2 123 -64 260 -138 138 -73 254 -131 259 -128 4
2 2 8 -5 13 -13 8 -2 25 293 458 43 63 78 112 78 110 0 -3 -51 -147 -114 -320
-75 -205 -119 -314 -128 -313 -7 1 -21 5 -30 9 -10 4 -18 3 -18 -1 0 -12 288
-160 296 -152 3 4 -12 16 -35 28 -23 11 -41 24 -41 28 0 5 14 46 31 93 17 46
104 291 194 544 90 253 184 517 209 588 25 70 44 127 42 127 -1 0 -182 -265
-402 -590 -338 -499 -424 -618 -424 -586 0 3 147 281 326 618 180 337 330 621
336 631 8 16 11 16 39 1 17 -8 33 -13 36 -11 5 6 -29 26 -242 139 -267 142
-275 146 -280 138z m291 -176 c-9 -22 -658 -1239 -665 -1247 -4 -4 -17 0 -29
10 -21 18 -21 18 259 543 154 289 305 571 335 627 53 100 55 102 80 91 14 -6
23 -17 20 -24z"/>
<path d="M7640 3270 c-8 -5 -10 -10 -5 -10 6 0 17 5 25 10 8 5 11 10 5 10 -5
0 -17 -5 -25 -10z"/>
<path d="M7545 3235 c-33 -13 -55 -24 -50 -24 10 -1 117 38 124 45 10 9 -17 2
-74 -21z"/>
<path d="M8374 3150 c29 -63 138 -288 241 -500 103 -212 220 -453 260 -537
l73 -152 -65 -42 c-36 -24 -61 -45 -55 -47 5 -1 45 20 88 48 78 50 106 78 67
66 -17 -5 -38 32 -166 296 -81 165 -146 302 -145 303 2 2 82 -83 178 -187 299
-326 284 -307 270 -323 -30 -36 5 -19 134 66 76 49 136 92 133 96 -3 3 -21 -4
-39 -15 l-33 -20 -440 469 c-242 258 -466 497 -498 532 l-57 62 54 -115z"/>
<path d="M7338 3163 c7 -3 16 -2 19 1 4 3 -2 6 -13 5 -11 0 -14 -3 -6 -6z"/>
<path d="M7268 3143 c7 -3 16 -2 19 1 4 3 -2 6 -13 5 -11 0 -14 -3 -6 -6z"/>
<path d="M7228 3133 c7 -3 16 -2 19 1 4 3 -2 6 -13 5 -11 0 -14 -3 -6 -6z"/>
<path d="M7148 3113 c7 -3 16 -2 19 1 4 3 -2 6 -13 5 -11 0 -14 -3 -6 -6z"/>
<path d="M7098 3103 c7 -3 16 -2 19 1 4 3 -2 6 -13 5 -11 0 -14 -3 -6 -6z"/>
<path d="M6698 3043 c7 -3 16 -2 19 1 4 3 -2 6 -13 5 -11 0 -14 -3 -6 -6z"/>
<path d="M7118 2933 c6 -2 18 -2 25 0 6 3 1 5 -13 5 -14 0 -19 -2 -12 -5z"/>
<path d="M7068 2923 c6 -2 18 -2 25 0 6 3 1 5 -13 5 -14 0 -19 -2 -12 -5z"/>
<path d="M7018 2913 c6 -2 18 -2 25 0 6 3 1 5 -13 5 -14 0 -19 -2 -12 -5z"/>
<path d="M6953 2903 c9 -2 23 -2 30 0 6 3 -1 5 -18 5 -16 0 -22 -2 -12 -5z"/>
<path d="M6888 2893 c6 -2 18 -2 25 0 6 3 1 5 -13 5 -14 0 -19 -2 -12 -5z"/>
<path d="M6803 2883 c9 -2 25 -2 35 0 9 3 1 5 -18 5 -19 0 -27 -2 -17 -5z"/>
<path d="M6723 2873 c9 -2 23 -2 30 0 6 3 -1 5 -18 5 -16 0 -22 -2 -12 -5z"/>
<path d="M6563 2863 c15 -2 37 -2 50 0 12 2 0 4 -28 4 -27 0 -38 -2 -22 -4z"/>
<path d="M6268 2713 c-39 -2 -68 -8 -68 -15 0 -6 13 -8 35 -4 l35 7 0 -39 c0
-33 24 -674 46 -1224 l7 -168 -31 0 c-17 0 -34 -4 -37 -10 -4 -6 19 -10 63
-10 109 0 252 12 252 21 0 5 -7 9 -15 9 -13 0 -15 9 -10 48 3 26 12 146 20
267 28 411 19 408 86 40 32 -176 59 -328 59 -337 0 -13 -8 -18 -25 -18 -14 0
-25 -5 -25 -11 0 -8 13 -10 38 -5 20 3 90 6 155 6 71 0 117 4 117 10 0 6 -17
10 -38 10 l-38 0 -128 688 c-71 378 -132 696 -136 706 -4 11 -10 -25 -13 -80
-38 -591 -92 -1321 -98 -1328 -5 -5 -11 -8 -13 -5 -2 2 -9 135 -15 294 -7 160
-16 398 -21 530 -5 132 -12 322 -16 423 l-7 182 32 0 c17 0 31 5 31 10 0 10
-88 11 -242 3z"/>
<path d="M856 8809 c-15 -33 -26 -62 -24 -65 3 -2 17 24 31 58 15 34 25 63 23
65 -1 2 -15 -24 -30 -58z"/>
<path d="M801 8681 c-29 -69 -26 -78 5 -12 13 30 23 56 20 58 -2 2 -13 -19
-25 -46z"/>
<path d="M736 8515 c-9 -26 -7 -32 5 -12 6 10 9 21 6 23 -2 3 -7 -2 -11 -11z"/>
<path d="M421 8169 c-7 -22 -11 -43 -8 -45 2 -2 9 14 16 37 7 22 11 43 8 45
-2 2 -9 -14 -16 -37z"/>
<path d="M396 8084 c-4 -14 -5 -28 -3 -31 3 -2 8 8 11 23 4 14 5 28 3 31 -3 2
-8 -8 -11 -23z"/>
<path d="M381 8024 c0 -11 3 -14 6 -6 3 7 2 16 -1 19 -3 4 -6 -2 -5 -13z"/>
<path d="M365 7970 c-4 -17 -5 -34 -2 -36 2 -3 7 10 11 27 8 42 0 50 -9 9z"/>
<path d="M345 7890 c-4 -17 -5 -34 -2 -36 2 -3 7 10 11 27 8 42 0 50 -9 9z"/>
<path d="M331 7824 c0 -11 3 -14 6 -6 3 7 2 16 -1 19 -3 4 -6 -2 -5 -13z"/>
<path d="M322 7780 c0 -14 2 -19 5 -12 2 6 2 18 0 25 -3 6 -5 1 -5 -13z"/>
<path d="M306 7728 c-3 -13 -5 -32 -5 -43 1 -11 5 -2 10 19 10 42 6 62 -5 24z"/>
<path d="M291 7644 c0 -11 3 -14 6 -6 3 7 2 16 -1 19 -3 4 -6 -2 -5 -13z"/>
<path d="M282 7595 c0 -16 2 -22 5 -12 2 9 2 23 0 30 -3 6 -5 -1 -5 -18z"/>
<path d="M272 7540 c0 -14 2 -19 5 -12 2 6 2 18 0 25 -3 6 -5 1 -5 -13z"/>
<path d="M262 7485 c0 -16 2 -22 5 -12 2 9 2 23 0 30 -3 6 -5 -1 -5 -18z"/>
<path d="M661 7318 c-13 -79 -21 -153 -18 -164 3 -13 5 -10 6 10 0 16 10 85
22 153 11 68 19 129 17 135 -2 6 -14 -54 -27 -134z"/>
<path d="M252 7430 c0 -14 2 -19 5 -12 2 6 2 18 0 25 -3 6 -5 1 -5 -13z"/>
<path d="M795 7315 c-10 -64 -16 -117 -13 -120 2 -2 12 47 22 111 10 63 16
117 14 120 -3 2 -13 -48 -23 -111z"/>
<path d="M242 7365 c0 -16 2 -22 5 -12 2 9 2 23 0 30 -3 6 -5 -1 -5 -18z"/>
<path d="M232 7300 c0 -14 2 -19 5 -12 2 6 2 18 0 25 -3 6 -5 1 -5 -13z"/>
<path d="M223 7225 c0 -22 2 -30 4 -17 2 12 2 30 0 40 -3 9 -5 -1 -4 -23z"/>
<path d="M773 7145 c0 -22 2 -30 4 -17 2 12 2 30 0 40 -3 9 -5 -1 -4 -23z"/>
<path d="M212 7150 c0 -14 2 -19 5 -12 2 6 2 18 0 25 -3 6 -5 1 -5 -13z"/>
<path d="M632 7100 c0 -19 2 -27 5 -17 2 9 2 25 0 35 -3 9 -5 1 -5 -18z"/>
<path d="M762 7060 c0 -19 2 -27 5 -17 2 9 2 25 0 35 -3 9 -5 1 -5 -18z"/>
<path d="M202 7050 c0 -14 2 -19 5 -12 2 6 2 18 0 25 -3 6 -5 1 -5 -13z"/>
<path d="M623 7015 c0 -27 2 -38 4 -22 2 15 2 37 0 50 -2 12 -4 0 -4 -28z"/>
<path d="M753 6970 c0 -25 2 -35 4 -22 2 12 2 32 0 45 -2 12 -4 2 -4 -23z"/>
<path d="M192 6960 c0 -14 2 -19 5 -12 2 6 2 18 0 25 -3 6 -5 1 -5 -13z"/>
<path d="M613 6905 c0 -22 2 -30 4 -17 2 12 2 30 0 40 -3 9 -5 -1 -4 -23z"/>
<path d="M743 6860 c0 -30 2 -43 4 -27 2 15 2 39 0 55 -2 15 -4 2 -4 -28z"/>
<path d="M603 6765 c0 -38 2 -53 4 -32 2 20 2 52 0 70 -2 17 -4 1 -4 -38z"/>
<path d="M181 6804 c0 -11 3 -14 6 -6 3 7 2 16 -1 19 -3 4 -6 -2 -5 -13z"/>
<path d="M733 6710 c0 -47 2 -66 4 -42 2 23 2 61 0 85 -2 23 -4 4 -4 -43z"/>
<path d="M173 6655 c0 -22 2 -30 4 -17 2 12 2 30 0 40 -3 9 -5 -1 -4 -23z"/>
<path d="M594 6510 c0 -74 1 -105 3 -67 2 37 2 97 0 135 -2 37 -3 6 -3 -68z"/>
<path d="M723 6415 c0 -38 2 -53 4 -32 2 20 2 52 0 70 -2 17 -4 1 -4 -38z"/>
<path d="M594 6275 c0 -49 1 -71 3 -48 2 23 2 64 0 90 -2 26 -3 8 -3 -42z"/>
<path d="M732 6080 c0 -19 2 -27 5 -17 2 9 2 25 0 35 -3 9 -5 1 -5 -18z"/>
<path d="M12632 5990 c0 -19 2 -27 5 -17 2 9 2 25 0 35 -3 9 -5 1 -5 -18z"/>
<path d="M12232 5990 c0 -14 2 -19 5 -12 2 6 2 18 0 25 -3 6 -5 1 -5 -13z"/>
<path d="M742 5965 c0 -16 2 -22 5 -12 2 9 2 23 0 30 -3 6 -5 -1 -5 -18z"/>
<path d="M12622 5845 c0 -16 2 -22 5 -12 2 9 2 23 0 30 -3 6 -5 -1 -5 -18z"/>
<path d="M12211 5764 c0 -11 3 -14 6 -6 3 7 2 16 -1 19 -3 4 -6 -2 -5 -13z"/>
<path d="M12612 5750 c0 -14 2 -19 5 -12 2 6 2 18 0 25 -3 6 -5 1 -5 -13z"/>
<path d="M12602 5655 c0 -16 2 -22 5 -12 2 9 2 23 0 30 -3 6 -5 -1 -5 -18z"/>
<path d="M12191 5594 c0 -11 3 -14 6 -6 3 7 2 16 -1 19 -3 4 -6 -2 -5 -13z"/>
<path d="M12592 5580 c0 -14 2 -19 5 -12 2 6 2 18 0 25 -3 6 -5 1 -5 -13z"/>
<path d="M12582 5500 c0 -14 2 -19 5 -12 2 6 2 18 0 25 -3 6 -5 1 -5 -13z"/>
<path d="M12171 5464 c0 -11 3 -14 6 -6 3 7 2 16 -1 19 -3 4 -6 -2 -5 -13z"/>
<path d="M12572 5440 c0 -14 2 -19 5 -12 2 6 2 18 0 25 -3 6 -5 1 -5 -13z"/>
<path d="M12562 5375 c0 -16 2 -22 5 -12 2 9 2 23 0 30 -3 6 -5 -1 -5 -18z"/>
<path d="M12151 5344 c0 -11 3 -14 6 -6 3 7 2 16 -1 19 -3 4 -6 -2 -5 -13z"/>
<path d="M12552 5320 c0 -14 2 -19 5 -12 2 6 2 18 0 25 -3 6 -5 1 -5 -13z"/>
<path d="M12542 5265 c0 -16 2 -22 5 -12 2 9 2 23 0 30 -3 6 -5 -1 -5 -18z"/>
<path d="M12131 5244 c0 -11 3 -14 6 -6 3 7 2 16 -1 19 -3 4 -6 -2 -5 -13z"/>
<path d="M12531 5204 c0 -11 3 -14 6 -6 3 7 2 16 -1 19 -3 4 -6 -2 -5 -13z"/>
<path d="M12121 5194 c0 -11 3 -14 6 -6 3 7 2 16 -1 19 -3 4 -6 -2 -5 -13z"/>
<path d="M12522 5160 c0 -14 2 -19 5 -12 2 6 2 18 0 25 -3 6 -5 1 -5 -13z"/>
<path d="M12512 5110 c0 -14 2 -19 5 -12 2 6 2 18 0 25 -3 6 -5 1 -5 -13z"/>
<path d="M12102 5100 c0 -14 2 -19 5 -12 2 6 2 18 0 25 -3 6 -5 1 -5 -13z"/>
<path d="M12502 5060 c0 -14 2 -19 5 -12 2 6 2 18 0 25 -3 6 -5 1 -5 -13z"/>
<path d="M12081 5014 c0 -11 3 -14 6 -6 3 7 2 16 -1 19 -3 4 -6 -2 -5 -13z"/>
<path d="M12491 5014 c0 -11 3 -14 6 -6 3 7 2 16 -1 19 -3 4 -6 -2 -5 -13z"/>
<path d="M12471 4934 c-7 -32 -38 -144 -68 -249 -70 -242 -67 -231 -60 -225
16 14 151 503 145 522 -2 6 -10 -15 -17 -48z"/>
<path d="M12061 4934 c0 -11 3 -14 6 -6 3 7 2 16 -1 19 -3 4 -6 -2 -5 -13z"/>
<path d="M12041 4864 c0 -11 3 -14 6 -6 3 7 2 16 -1 19 -3 4 -6 -2 -5 -13z"/>
<path d="M12021 4794 c0 -11 3 -14 6 -6 3 7 2 16 -1 19 -3 4 -6 -2 -5 -13z"/>
<path d="M12001 4724 c0 -11 3 -14 6 -6 3 7 2 16 -1 19 -3 4 -6 -2 -5 -13z"/>
<path d="M11947 4558 c-20 -62 -35 -114 -33 -116 2 -2 21 47 41 108 20 61 35
113 33 115 -2 2 -20 -46 -41 -107z"/>
<path d="M12325 4428 c-57 -194 -224 -589 -366 -867 -60 -117 -106 -218 -102
-224 3 -5 1 -7 -4 -4 -6 4 -32 -30 -58 -76 -26 -45 -83 -137 -127 -205 -43
-68 -75 -128 -72 -134 4 -6 2 -8 -3 -5 -14 9 -46 -40 -37 -55 4 -6 3 -8 -3 -5
-13 8 -106 -121 -97 -135 4 -6 3 -8 -3 -5 -6 4 -43 -37 -83 -90 -204 -271
-532 -628 -797 -865 -68 -61 -120 -115 -116 -121 4 -6 1 -7 -6 -3 -15 10 -53
-23 -44 -37 3 -5 1 -7 -4 -4 -14 9 -65 -32 -57 -45 4 -6 3 -8 -3 -5 -14 9 -55
-22 -47 -35 5 -7 2 -8 -5 -4 -15 10 -53 -23 -44 -37 3 -5 1 -7 -5 -3 -12 7
-228 -152 -224 -166 1 -5 -2 -7 -8 -3 -14 9 -42 -14 -33 -28 3 -6 1 -7 -5 -3
-13 8 -94 -43 -87 -55 3 -4 0 -11 -6 -15 -8 -5 -9 -3 -4 6 5 8 3 11 -6 8 -8
-3 -14 -10 -14 -18 0 -7 -11 -19 -25 -28 l-25 -14 25 21 c30 24 20 28 -15 5
-14 -9 -23 -20 -20 -24 3 -5 0 -12 -6 -16 -8 -5 -9 -3 -4 6 5 8 3 11 -6 8 -8
-3 -14 -10 -14 -15 0 -6 -4 -15 -9 -20 -5 -5 -6 -3 -2 5 9 15 1 15 -25 1 -11
-5 -17 -14 -14 -19 3 -5 0 -12 -6 -16 -8 -4 -9 -3 -5 4 11 18 2 15 -63 -24
-34 -20 -59 -40 -56 -44 3 -5 0 -12 -6 -16 -8 -4 -9 -3 -5 4 12 20 0 14 -122
-55 -272 -154 -683 -340 -980 -443 -67 -24 -121 -45 -119 -47 6 -6 265 87 420
151 241 99 506 226 677 325 40 23 34 14 -60 -83 -159 -165 -178 -186 -174
-186 12 0 74 35 74 42 0 5 4 7 9 3 5 -3 16 2 25 10 8 9 18 16 21 15 21 -1 25
1 19 12 -5 8 -2 9 9 5 9 -3 24 1 33 11 10 9 20 17 23 17 20 2 51 18 51 26 0 6
4 8 9 4 5 -3 13 0 16 6 4 6 27 19 51 29 53 23 368 218 372 231 2 5 8 9 14 9
20 0 332 227 493 359 288 236 578 519 826 807 135 157 398 510 488 654 167
269 301 501 301 521 0 4 8 13 18 18 9 6 14 11 10 11 -4 0 16 49 45 108 64 133
82 175 79 185 -1 4 3 7 9 7 5 0 7 5 4 10 -3 6 -1 10 4 10 6 0 10 3 9 8 -1 4 3
17 10 28 6 12 8 24 5 28 -3 3 -1 6 6 6 7 0 9 5 6 10 -3 6 -1 10 6 10 7 0 9 3
6 7 -4 3 -2 12 4 20 6 7 8 13 3 13 -5 0 -4 4 1 8 15 10 47 83 40 90 -3 4 -32
-23 -63 -58 -31 -35 -83 -90 -114 -122 -31 -32 -60 -67 -63 -79 -4 -11 -9 -19
-11 -16 -2 2 15 46 39 98 86 185 245 605 233 616 -2 2 -7 -6 -11 -19z m-400
-978 c-9 -16 -18 -30 -21 -30 -2 0 2 14 11 30 9 17 18 30 21 30 2 0 -2 -13
-11 -30z m-25 -47 c0 -5 -10 -19 -21 -33 l-21 -25 18 33 c18 32 24 38 24 25z
m-2225 -2339 c-26 -20 -55 -36 -55 -30 0 5 63 46 70 46 3 -1 -4 -8 -15 -16z
m-115 -69 c0 -2 -13 -11 -30 -20 -38 -19 -40 -11 -2 9 31 17 32 18 32 11z"/>
<path d="M11881 4369 c-6 -18 -9 -34 -7 -36 2 -2 9 10 15 28 6 18 9 34 7 36
-2 2 -9 -10 -15 -28z"/>
<path d="M11856 4305 c-9 -26 -7 -32 5 -12 6 10 9 21 6 23 -2 3 -7 -2 -11 -11z"/>
<path d="M11836 4255 c-9 -26 -7 -32 5 -12 6 10 9 21 6 23 -2 3 -7 -2 -11 -11z"/>
<path d="M11816 4205 c-9 -26 -7 -32 5 -12 6 10 9 21 6 23 -2 3 -7 -2 -11 -11z"/>
<path d="M11751 4047 c-226 -516 -577 -1065 -948 -1484 -71 -80 -91 -109 -55
-82 9 7 4 -1 -12 -19 -34 -36 -49 -44 -20 -9 17 20 17 20 -8 -2 -15 -13 -25
-29 -21 -35 3 -6 3 -8 -2 -4 -4 4 -94 -77 -199 -180 -415 -407 -834 -714
-1355 -993 -91 -49 -162 -89 -157 -89 15 0 272 138 412 221 403 240 755 511
1124 864 139 134 114 103 -70 -84 -36 -37 -87 -91 -114 -121 -103 -115 -272
-296 -306 -328 -47 -44 -237 -181 -385 -277 -121 -78 -174 -118 -100 -75 61
36 269 176 370 249 628 456 1189 1071 1598 1751 80 134 212 380 204 380 -3 0
-33 -53 -68 -117 -111 -209 -303 -521 -332 -540 -13 -9 -115 -117 -287 -303
-201 -218 -255 -270 -145 -140 360 427 658 902 879 1404 32 70 55 130 54 132
-2 2 -28 -52 -57 -119z"/>
<path d="M11822 3985 c-17 -37 -14 -45 4 -12 9 16 14 31 11 33 -2 2 -9 -7 -15
-21z"/>
<path d="M11766 3864 c-20 -42 -36 -79 -36 -83 1 -7 48 82 67 127 25 61 5 32
-31 -44z"/>
<path d="M11715 3759 c-4 -6 -5 -12 -2 -15 2 -3 7 2 10 11 7 17 1 20 -8 4z"/>
<path d="M9447 1306 c-48 -29 -61 -43 -22 -23 31 16 74 46 65 46 -3 0 -22 -10
-43 -23z"/>
<path d="M9273 1207 c-61 -34 -115 -66 -120 -71 -4 -5 24 8 62 29 124 67 175
96 175 101 0 6 3 8 -117 -59z"/>
<path d="M8808 1083 c-81 -37 -145 -69 -143 -71 4 -4 275 117 290 130 16 14 5
9 -147 -59z"/>
<path d="M8470 940 c-8 -5 -10 -10 -5 -10 6 0 17 5 25 10 8 5 11 10 5 10 -5 0
-17 -5 -25 -10z"/>
<path d="M8360 900 c-8 -5 -10 -10 -5 -10 6 0 17 5 25 10 8 5 11 10 5 10 -5 0
-17 -5 -25 -10z"/>
<path d="M8108 813 c7 -3 16 -2 19 1 4 3 -2 6 -13 5 -11 0 -14 -3 -6 -6z"/>
<path d="M9170 655 c-14 -8 -20 -14 -14 -15 5 0 19 7 30 15 24 18 16 19 -16 0z"/>
<path d="M8280 445 c-19 -7 -28 -13 -20 -13 8 0 31 6 50 13 19 7 28 13 20 13
-8 0 -31 -6 -50 -13z"/>
<path d="M8092 390 c-77 -23 -97 -32 -57 -25 41 7 153 43 135 43 -8 0 -44 -8
-78 -18z"/>
<path d="M7978 353 c7 -3 16 -2 19 1 4 3 -2 6 -13 5 -11 0 -14 -3 -6 -6z"/>
<path d="M7938 343 c7 -3 16 -2 19 1 4 3 -2 6 -13 5 -11 0 -14 -3 -6 -6z"/>
<path d="M7898 333 c7 -3 16 -2 19 1 4 3 -2 6 -13 5 -11 0 -14 -3 -6 -6z"/>
<path d="M7858 323 c7 -3 16 -2 19 1 4 3 -2 6 -13 5 -11 0 -14 -3 -6 -6z"/>
<path d="M7808 313 c6 -2 18 -2 25 0 6 3 1 5 -13 5 -14 0 -19 -2 -12 -5z"/>
<path d="M7768 303 c7 -3 16 -2 19 1 4 3 -2 6 -13 5 -11 0 -14 -3 -6 -6z"/>
<path d="M7728 293 c7 -3 16 -2 19 1 4 3 -2 6 -13 5 -11 0 -14 -3 -6 -6z"/>
<path d="M7678 283 c7 -3 16 -2 19 1 4 3 -2 6 -13 5 -11 0 -14 -3 -6 -6z"/>
<path d="M7628 273 c6 -2 18 -2 25 0 6 3 1 5 -13 5 -14 0 -19 -2 -12 -5z"/>
<path d="M7468 243 c7 -3 16 -2 19 1 4 3 -2 6 -13 5 -11 0 -14 -3 -6 -6z"/>
<path d="M7418 233 c7 -3 16 -2 19 1 4 3 -2 6 -13 5 -11 0 -14 -3 -6 -6z"/>
<path d="M7348 223 c7 -3 16 -2 19 1 4 3 -2 6 -13 5 -11 0 -14 -3 -6 -6z"/>
<path d="M7208 203 c7 -3 16 -2 19 1 4 3 -2 6 -13 5 -11 0 -14 -3 -6 -6z"/>
</g>
</svg>
